<?xml version="1.0" encoding="UTF-8"?><svg xmlns="http://www.w3.org/2000/svg" xmlns:xlink="http://www.w3.org/1999/xlink" stroke-dasharray="none" shape-rendering="auto" font-family="'Dialog'" width="194" text-rendering="auto" fill-opacity="1" contentScriptType="text/ecmascript" color-interpolation="auto" color-rendering="auto" preserveAspectRatio="xMidYMid meet" font-size="12" viewBox="0 0 194 507" fill="black" stroke="black" image-rendering="auto" stroke-miterlimit="10" zoomAndPan="magnify" version="1.0" stroke-linecap="square" stroke-linejoin="miter" contentStyleType="text/css" font-style="normal" height="507" stroke-width="1" stroke-dashoffset="0" font-weight="normal" stroke-opacity="1">
<!--Generated by the Batik Graphics2D SVG Generator-->
<defs id="genericDefs"/>
<g>
<defs id="defs1">
<linearGradient x1="10" x2="10" y1="10" gradientUnits="userSpaceOnUse" y2="497" xlink:type="simple" xlink:actuate="onLoad" id="linearGradient1" xlink:show="other" spreadMethod="pad">
<stop stop-opacity="1" stop-color="white" offset="0%"/>
<stop stop-opacity="1" stop-color="white" offset="100%"/>
</linearGradient>
<linearGradient x1="44" x2="44" y1="298" gradientUnits="userSpaceOnUse" y2="341" xlink:type="simple" xlink:actuate="onLoad" id="linearGradient2" xlink:show="other" spreadMethod="pad">
<stop stop-opacity="1" stop-color="white" offset="0%"/>
<stop stop-opacity="1" stop-color="white" offset="100%"/>
</linearGradient>
<linearGradient x1="44" x2="44" y1="153" gradientUnits="userSpaceOnUse" y2="196" xlink:type="simple" xlink:actuate="onLoad" id="linearGradient3" xlink:show="other" spreadMethod="pad">
<stop stop-opacity="1" stop-color="white" offset="0%"/>
<stop stop-opacity="1" stop-color="white" offset="100%"/>
</linearGradient>
<clipPath clipPathUnits="userSpaceOnUse" id="clipPath1">
<path d="M9 9 L185 9 L185 498 L9 498 L9 9 Z"/>
</clipPath>
<clipPath clipPathUnits="userSpaceOnUse" id="clipPath2">
<path d="M16 15 L59 15 L59 31 L16 31 L16 15 Z"/>
</clipPath>
<clipPath clipPathUnits="userSpaceOnUse" id="clipPath3">
<path d="M38 285 L161 285 L161 355 L38 355 L38 285 Z"/>
</clipPath>
<clipPath clipPathUnits="userSpaceOnUse" id="clipPath4">
<path d="M43 290 L156 290 L156 350 L43 350 L43 290 Z"/>
</clipPath>
<clipPath clipPathUnits="userSpaceOnUse" id="clipPath5">
<path d="M76 296 L124 296 L124 312 L76 312 L76 296 Z"/>
</clipPath>
<clipPath clipPathUnits="userSpaceOnUse" id="clipPath6">
<path d="M56 313 L145 313 L145 343 L56 343 L56 313 Z"/>
</clipPath>
<clipPath clipPathUnits="userSpaceOnUse" id="clipPath7">
<path d="M38 140 L161 140 L161 210 L38 210 L38 140 Z"/>
</clipPath>
<clipPath clipPathUnits="userSpaceOnUse" id="clipPath8">
<path d="M43 145 L156 145 L156 205 L43 205 L43 145 Z"/>
</clipPath>
<clipPath clipPathUnits="userSpaceOnUse" id="clipPath9">
<path d="M73 151 L127 151 L127 167 L73 167 L73 151 Z"/>
</clipPath>
<clipPath clipPathUnits="userSpaceOnUse" id="clipPath10">
<path d="M56 168 L141 168 L141 198 L56 198 L56 168 Z"/>
</clipPath>
<clipPath clipPathUnits="userSpaceOnUse" id="clipPath11">
<path d="M56 90 L73 90 L73 107 L56 107 L56 90 Z"/>
</clipPath>
<clipPath clipPathUnits="userSpaceOnUse" id="clipPath12">
<path d="M-1 -1 L195 -1 L195 508 L-1 508 L-1 -1 Z"/>
</clipPath>
<clipPath clipPathUnits="userSpaceOnUse" id="clipPath13">
<path d="M132 283 L141 283 L141 293 L132 293 L132 283 Z"/>
</clipPath>
<clipPath clipPathUnits="userSpaceOnUse" id="clipPath14">
<path d="M87 226 L168 226 L168 242 L87 242 L87 226 Z"/>
</clipPath>
<clipPath clipPathUnits="userSpaceOnUse" id="clipPath15">
<path d="M59 203 L68 203 L68 213 L59 213 L59 203 Z"/>
</clipPath>
<clipPath clipPathUnits="userSpaceOnUse" id="clipPath16">
<path d="M27 261 L113 261 L113 277 L27 277 L27 261 Z"/>
</clipPath>
<clipPath clipPathUnits="userSpaceOnUse" id="clipPath17">
<path d="M144 138 L153 138 L153 148 L144 148 L144 138 Z"/>
</clipPath>
<clipPath clipPathUnits="userSpaceOnUse" id="clipPath18">
<path d="M90 95 L176 95 L176 111 L90 111 L90 95 Z"/>
</clipPath>
<clipPath clipPathUnits="userSpaceOnUse" id="clipPath19">
<path d="M60 138 L69 138 L69 148 L60 148 L60 138 Z"/>
</clipPath>
<clipPath clipPathUnits="userSpaceOnUse" id="clipPath20">
<path d="M60 348 L69 348 L69 358 L60 358 L60 348 Z"/>
</clipPath>
<clipPath clipPathUnits="userSpaceOnUse" id="clipPath21">
<path d="M62 381 L143 381 L143 397 L62 397 L62 381 Z"/>
</clipPath>
</defs>
<g fill="url(#linearGradient1)" font-family="'Verdana'" stroke-linejoin="round" stroke="url(#linearGradient1)" stroke-width="0" stroke-miterlimit="0">
<rect x="10" y="10" clip-path="url(#clipPath1)" width="174" height="487" stroke="none"/>
</g>
<g stroke-width="1.1" font-family="'Verdana'" stroke-linecap="butt">
<rect x="10" y="10" clip-path="url(#clipPath1)" fill="none" width="173" height="486"/>
<text xml:space="preserve" x="17" y="29" clip-path="url(#clipPath2)" stroke="none">Detect</text>
<rect x="49" y="296" clip-path="url(#clipPath3)" fill="none" width="110" rx="7.5" opacity="0.0784" ry="7.5" height="57" stroke="gray" stroke-width="2.1"/>
<rect x="48" y="295" clip-path="url(#clipPath3)" fill="none" width="110" rx="7.5" opacity="0.1176" ry="7.5" height="57" stroke="gray" stroke-width="2.1"/>
<rect x="47" y="294" clip-path="url(#clipPath3)" fill="none" width="110" rx="7.5" opacity="0.2353" ry="7.5" height="57" stroke="gray" stroke-width="2.1"/>
<rect x="46" y="293" clip-path="url(#clipPath3)" fill="none" width="110" rx="7.5" opacity="0.3922" ry="7.5" height="57" stroke="gray" stroke-width="2.1"/>
<rect x="45" y="292" clip-path="url(#clipPath3)" fill="none" width="110" rx="7.5" opacity="0.5882" ry="7.5" height="57" stroke="gray" stroke-width="2.1"/>
<rect x="44" y="298" clip-path="url(#clipPath4)" fill="url(#linearGradient2)" width="111" height="43" stroke="none" stroke-width="2.1"/>
<path clip-path="url(#clipPath4)" fill="white" fill-rule="evenodd" d="M44 340.5 C44 344.6421 47.3579 348 51.5 348 L146.5 348 C150.6421 348 154 344.6421 154 340.5" stroke="none" stroke-width="2.1"/>
<path clip-path="url(#clipPath4)" fill="white" fill-rule="evenodd" d="M154 298.5 C154 294.3578 150.6421 291 146.5 291 C146.5 291 146.5 291 146.5 291 L51.5 291 C47.3579 291 44 294.3578 44 298.5" stroke="none" stroke-width="2.1"/>
<rect x="44" y="291" clip-path="url(#clipPath4)" fill="none" width="110" rx="7.5" ry="7.5" height="57"/>
<text x="77" y="310" clip-path="url(#clipPath5)" stroke="none" font-weight="bold" xml:space="preserve">Absent</text>
<text xml:space="preserve" x="57" y="327" clip-path="url(#clipPath6)" stroke="none">entry /</text>
<text xml:space="preserve" x="57" y="341" clip-path="url(#clipPath6)" stroke="none">queue = false</text>
<rect x="49" y="151" clip-path="url(#clipPath7)" fill="none" width="110" rx="7.5" opacity="0.0784" ry="7.5" height="57" stroke="gray" stroke-width="2.1"/>
<rect x="48" y="150" clip-path="url(#clipPath7)" fill="none" width="110" rx="7.5" opacity="0.1176" ry="7.5" height="57" stroke="gray" stroke-width="2.1"/>
<rect x="47" y="149" clip-path="url(#clipPath7)" fill="none" width="110" rx="7.5" opacity="0.2353" ry="7.5" height="57" stroke="gray" stroke-width="2.1"/>
<rect x="46" y="148" clip-path="url(#clipPath7)" fill="none" width="110" rx="7.5" opacity="0.3922" ry="7.5" height="57" stroke="gray" stroke-width="2.1"/>
<rect x="45" y="147" clip-path="url(#clipPath7)" fill="none" width="110" rx="7.5" opacity="0.5882" ry="7.5" height="57" stroke="gray" stroke-width="2.1"/>
<rect x="44" y="153" clip-path="url(#clipPath8)" fill="url(#linearGradient3)" width="111" height="43" stroke="none" stroke-width="2.1"/>
<path clip-path="url(#clipPath8)" fill="white" fill-rule="evenodd" d="M44 195.5 C44 199.6421 47.3579 203 51.5 203 L146.5 203 C150.6421 203 154 199.6421 154 195.5" stroke="none" stroke-width="2.1"/>
<path clip-path="url(#clipPath8)" fill="white" fill-rule="evenodd" d="M154 153.5 C154 149.3578 150.6421 146 146.5 146 C146.5 146 146.5 146 146.5 146 L51.5 146 C47.3579 146 44 149.3579 44 153.5" stroke="none" stroke-width="2.1"/>
<rect x="44" y="146" clip-path="url(#clipPath8)" fill="none" width="110" rx="7.5" ry="7.5" height="57"/>
<text x="74" y="165" clip-path="url(#clipPath9)" stroke="none" font-weight="bold" xml:space="preserve">Present</text>
<text xml:space="preserve" x="57" y="182" clip-path="url(#clipPath10)" stroke="none">entry /</text>
<text xml:space="preserve" x="57" y="196" clip-path="url(#clipPath10)" stroke="none">queue = true</text>
<circle r="6.5" clip-path="url(#clipPath11)" cx="63.5" cy="97.5" stroke="none"/>
<line clip-path="url(#clipPath12)" fill="none" x1="136" x2="136" y1="204" y2="291"/>
<polygon clip-path="url(#clipPath13)" points=" 136 291 133 284 139 284" stroke="none"/>
<polygon fill="none" clip-path="url(#clipPath13)" points=" 136 291 133 284 139 284"/>
<text xml:space="preserve" x="88" y="240" clip-path="url(#clipPath14)" stroke="none">trafficAbsent</text>
<line clip-path="url(#clipPath12)" fill="none" x1="63" x2="63" y1="291" y2="204"/>
<polygon clip-path="url(#clipPath15)" points=" 63 204 66 211 60 211" stroke="none"/>
<polygon fill="none" clip-path="url(#clipPath15)" points=" 63 204 66 211 60 211"/>
<text xml:space="preserve" x="28" y="275" clip-path="url(#clipPath16)" stroke="none">trafficPresent</text>
<line clip-path="url(#clipPath12)" fill="none" x1="104" x2="104" y1="146" y2="116"/>
<line clip-path="url(#clipPath12)" fill="none" x1="104" x2="148" y1="116" y2="116"/>
<line clip-path="url(#clipPath12)" fill="none" x1="148" x2="148" y1="116" y2="146"/>
<polygon clip-path="url(#clipPath17)" points=" 148 146 145 139 151 139" stroke="none"/>
<polygon fill="none" clip-path="url(#clipPath17)" points=" 148 146 145 139 151 139"/>
<text xml:space="preserve" x="91" y="109" clip-path="url(#clipPath18)" stroke="none">trafficPresent</text>
<line clip-path="url(#clipPath12)" fill="none" x1="64" x2="64" y1="105" y2="146"/>
<polygon clip-path="url(#clipPath19)" points=" 64 146 61 139 67 139" stroke="none"/>
<polygon fill="none" clip-path="url(#clipPath19)" points=" 64 146 61 139 67 139"/>
<line clip-path="url(#clipPath12)" fill="none" x1="142" x2="142" y1="349" y2="376"/>
<line clip-path="url(#clipPath12)" fill="none" x1="142" x2="64" y1="376" y2="376"/>
<line clip-path="url(#clipPath12)" fill="none" x1="64" x2="64" y1="376" y2="349"/>
<polygon clip-path="url(#clipPath20)" points=" 64 349 67 356 61 356" stroke="none"/>
<polygon fill="none" clip-path="url(#clipPath20)" points=" 64 349 67 356 61 356"/>
<text xml:space="preserve" x="63" y="395" clip-path="url(#clipPath21)" stroke="none">trafficAbsent</text>
</g>
</g>
</svg>
