<?xml version="1.0" encoding="UTF-8"?><svg xmlns="http://www.w3.org/2000/svg" xmlns:xlink="http://www.w3.org/1999/xlink" stroke-dasharray="none" shape-rendering="auto" font-family="'Dialog'" width="716" text-rendering="auto" fill-opacity="1" contentScriptType="text/ecmascript" color-interpolation="auto" color-rendering="auto" preserveAspectRatio="xMidYMid meet" font-size="12" viewBox="0 0 716 446" fill="black" stroke="black" image-rendering="auto" stroke-miterlimit="10" zoomAndPan="magnify" version="1.0" stroke-linecap="square" stroke-linejoin="miter" contentStyleType="text/css" font-style="normal" height="446" stroke-width="1" stroke-dashoffset="0" font-weight="normal" stroke-opacity="1">
<!--Generated by the Batik Graphics2D SVG Generator-->
<defs id="genericDefs"/>
<g>
<defs id="defs1">
<linearGradient x1="10" x2="10" y1="10" gradientUnits="userSpaceOnUse" y2="436" xlink:type="simple" xlink:actuate="onLoad" id="linearGradient1" xlink:show="other" spreadMethod="pad">
<stop stop-opacity="1" stop-color="white" offset="0%"/>
<stop stop-opacity="1" stop-color="white" offset="100%"/>
</linearGradient>
<linearGradient x1="298" x2="298" y1="222" gradientUnits="userSpaceOnUse" y2="255" xlink:type="simple" xlink:actuate="onLoad" id="linearGradient2" xlink:show="other" spreadMethod="pad">
<stop stop-opacity="1" stop-color="white" offset="0%"/>
<stop stop-opacity="1" stop-color="white" offset="100%"/>
</linearGradient>
<linearGradient x1="523" x2="523" y1="87" gradientUnits="userSpaceOnUse" y2="120" xlink:type="simple" xlink:actuate="onLoad" id="linearGradient3" xlink:show="other" spreadMethod="pad">
<stop stop-opacity="1" stop-color="white" offset="0%"/>
<stop stop-opacity="1" stop-color="white" offset="100%"/>
</linearGradient>
<linearGradient x1="120" x2="120" y1="87" gradientUnits="userSpaceOnUse" y2="120" xlink:type="simple" xlink:actuate="onLoad" id="linearGradient4" xlink:show="other" spreadMethod="pad">
<stop stop-opacity="1" stop-color="white" offset="0%"/>
<stop stop-opacity="1" stop-color="white" offset="100%"/>
</linearGradient>
<linearGradient x1="120" x2="120" y1="352" gradientUnits="userSpaceOnUse" y2="385" xlink:type="simple" xlink:actuate="onLoad" id="linearGradient5" xlink:show="other" spreadMethod="pad">
<stop stop-opacity="1" stop-color="white" offset="0%"/>
<stop stop-opacity="1" stop-color="white" offset="100%"/>
</linearGradient>
<linearGradient x1="523" x2="523" y1="352" gradientUnits="userSpaceOnUse" y2="385" xlink:type="simple" xlink:actuate="onLoad" id="linearGradient6" xlink:show="other" spreadMethod="pad">
<stop stop-opacity="1" stop-color="white" offset="0%"/>
<stop stop-opacity="1" stop-color="white" offset="100%"/>
</linearGradient>
<clipPath clipPathUnits="userSpaceOnUse" id="clipPath1">
<path d="M9 9 L707 9 L707 437 L9 437 L9 9 Z"/>
</clipPath>
<clipPath clipPathUnits="userSpaceOnUse" id="clipPath2">
<path d="M16 15 L81 15 L81 31 L16 31 L16 15 Z"/>
</clipPath>
<clipPath clipPathUnits="userSpaceOnUse" id="clipPath3">
<path d="M292 209 L485 209 L485 269 L292 269 L292 209 Z"/>
</clipPath>
<clipPath clipPathUnits="userSpaceOnUse" id="clipPath4">
<path d="M297 214 L480 214 L480 264 L297 264 L297 214 Z"/>
</clipPath>
<clipPath clipPathUnits="userSpaceOnUse" id="clipPath5">
<path d="M377 220 L401 220 L401 236 L377 236 L377 220 Z"/>
</clipPath>
<clipPath clipPathUnits="userSpaceOnUse" id="clipPath6">
<path d="M380 164 L397 164 L397 181 L380 181 L380 164 Z"/>
</clipPath>
<clipPath clipPathUnits="userSpaceOnUse" id="clipPath7">
<path d="M517 74 L648 74 L648 134 L517 134 L517 74 Z"/>
</clipPath>
<clipPath clipPathUnits="userSpaceOnUse" id="clipPath8">
<path d="M522 79 L643 79 L643 129 L522 129 L522 79 Z"/>
</clipPath>
<clipPath clipPathUnits="userSpaceOnUse" id="clipPath9">
<path d="M555 85 L610 85 L610 101 L555 101 L555 85 Z"/>
</clipPath>
<clipPath clipPathUnits="userSpaceOnUse" id="clipPath10">
<path d="M114 74 L245 74 L245 134 L114 134 L114 74 Z"/>
</clipPath>
<clipPath clipPathUnits="userSpaceOnUse" id="clipPath11">
<path d="M119 79 L240 79 L240 129 L119 129 L119 79 Z"/>
</clipPath>
<clipPath clipPathUnits="userSpaceOnUse" id="clipPath12">
<path d="M163 85 L196 85 L196 101 L163 101 L163 85 Z"/>
</clipPath>
<clipPath clipPathUnits="userSpaceOnUse" id="clipPath13">
<path d="M114 339 L245 339 L245 399 L114 399 L114 339 Z"/>
</clipPath>
<clipPath clipPathUnits="userSpaceOnUse" id="clipPath14">
<path d="M119 344 L240 344 L240 394 L119 394 L119 344 Z"/>
</clipPath>
<clipPath clipPathUnits="userSpaceOnUse" id="clipPath15">
<path d="M150 350 L210 350 L210 366 L150 366 L150 350 Z"/>
</clipPath>
<clipPath clipPathUnits="userSpaceOnUse" id="clipPath16">
<path d="M517 339 L648 339 L648 399 L517 399 L517 339 Z"/>
</clipPath>
<clipPath clipPathUnits="userSpaceOnUse" id="clipPath17">
<path d="M522 344 L643 344 L643 394 L522 394 L522 344 Z"/>
</clipPath>
<clipPath clipPathUnits="userSpaceOnUse" id="clipPath18">
<path d="M572 350 L593 350 L593 366 L572 366 L572 350 Z"/>
</clipPath>
<clipPath clipPathUnits="userSpaceOnUse" id="clipPath19">
<path d="M-1 -1 L717 -1 L717 447 L-1 447 L-1 -1 Z"/>
</clipPath>
<clipPath clipPathUnits="userSpaceOnUse" id="clipPath20">
<path d="M290 221 L300 221 L300 230 L290 230 L290 221 Z"/>
</clipPath>
<clipPath clipPathUnits="userSpaceOnUse" id="clipPath21">
<path d="M213 203 L250 203 L250 219 L213 219 L213 203 Z"/>
</clipPath>
<clipPath clipPathUnits="userSpaceOnUse" id="clipPath22">
<path d="M168 72 L177 72 L177 82 L168 82 L168 72 Z"/>
</clipPath>
<clipPath clipPathUnits="userSpaceOnUse" id="clipPath23">
<path d="M230 50 L265 50 L265 66 L230 66 L230 50 Z"/>
</clipPath>
<clipPath clipPathUnits="userSpaceOnUse" id="clipPath24">
<path d="M175 127 L184 127 L184 137 L175 137 L175 127 Z"/>
</clipPath>
<clipPath clipPathUnits="userSpaceOnUse" id="clipPath25">
<path d="M80 224 L171 224 L171 254 L80 254 L80 224 Z"/>
</clipPath>
<clipPath clipPathUnits="userSpaceOnUse" id="clipPath26">
<path d="M478 250 L488 250 L488 259 L478 259 L478 250 Z"/>
</clipPath>
<clipPath clipPathUnits="userSpaceOnUse" id="clipPath27">
<path d="M520 259 L557 259 L557 275 L520 275 L520 259 Z"/>
</clipPath>
<clipPath clipPathUnits="userSpaceOnUse" id="clipPath28">
<path d="M238 116 L248 116 L248 125 L238 125 L238 116 Z"/>
</clipPath>
<clipPath clipPathUnits="userSpaceOnUse" id="clipPath29">
<path d="M283 127 L320 127 L320 143 L283 143 L283 127 Z"/>
</clipPath>
<clipPath clipPathUnits="userSpaceOnUse" id="clipPath30">
<path d="M515 98 L525 98 L525 107 L515 107 L515 98 Z"/>
</clipPath>
<clipPath clipPathUnits="userSpaceOnUse" id="clipPath31">
<path d="M340 80 L421 80 L421 96 L340 96 L340 80 Z"/>
</clipPath>
<clipPath clipPathUnits="userSpaceOnUse" id="clipPath32">
<path d="M384 207 L393 207 L393 217 L384 217 L384 207 Z"/>
</clipPath>
<clipPath clipPathUnits="userSpaceOnUse" id="clipPath33">
<path d="M478 221 L488 221 L488 230 L478 230 L478 221 Z"/>
</clipPath>
<clipPath clipPathUnits="userSpaceOnUse" id="clipPath34">
<path d="M525 206 L562 206 L562 222 L525 222 L525 206 Z"/>
</clipPath>
<clipPath clipPathUnits="userSpaceOnUse" id="clipPath35">
<path d="M319 262 L328 262 L328 272 L319 272 L319 262 Z"/>
</clipPath>
<clipPath clipPathUnits="userSpaceOnUse" id="clipPath36">
<path d="M327 305 L449 305 L449 321 L327 321 L327 305 Z"/>
</clipPath>
<clipPath clipPathUnits="userSpaceOnUse" id="clipPath37">
<path d="M578 337 L587 337 L587 347 L578 347 L578 337 Z"/>
</clipPath>
<clipPath clipPathUnits="userSpaceOnUse" id="clipPath38">
<path d="M589 224 L680 224 L680 254 L589 254 L589 224 Z"/>
</clipPath>
<clipPath clipPathUnits="userSpaceOnUse" id="clipPath39">
<path d="M112 91 L122 91 L122 100 L112 100 L112 91 Z"/>
</clipPath>
<clipPath clipPathUnits="userSpaceOnUse" id="clipPath40">
<path d="M536 400 L571 400 L571 416 L536 416 L536 400 Z"/>
</clipPath>
<clipPath clipPathUnits="userSpaceOnUse" id="clipPath41">
<path d="M150 72 L159 72 L159 82 L150 82 L150 72 Z"/>
</clipPath>
<clipPath clipPathUnits="userSpaceOnUse" id="clipPath42">
<path d="M544 14 L579 14 L579 30 L544 30 L544 14 Z"/>
</clipPath>
<clipPath clipPathUnits="userSpaceOnUse" id="clipPath43">
<path d="M112 106 L122 106 L122 115 L112 115 L112 106 Z"/>
</clipPath>
<clipPath clipPathUnits="userSpaceOnUse" id="clipPath44">
<path d="M75 345 L110 345 L110 361 L75 361 L75 345 Z"/>
</clipPath>
<clipPath clipPathUnits="userSpaceOnUse" id="clipPath45">
<path d="M238 363 L248 363 L248 372 L238 372 L238 363 Z"/>
</clipPath>
<clipPath clipPathUnits="userSpaceOnUse" id="clipPath46">
<path d="M343 377 L424 377 L424 393 L343 393 L343 377 Z"/>
</clipPath>
<clipPath clipPathUnits="userSpaceOnUse" id="clipPath47">
<path d="M290 246 L300 246 L300 255 L290 255 L290 246 Z"/>
</clipPath>
<clipPath clipPathUnits="userSpaceOnUse" id="clipPath48">
<path d="M214 255 L251 255 L251 271 L214 271 L214 255 Z"/>
</clipPath>
</defs>
<g fill="url(#linearGradient1)" font-family="'Verdana'" stroke-linejoin="round" stroke="url(#linearGradient1)" stroke-width="0" stroke-miterlimit="0">
<rect x="10" y="10" clip-path="url(#clipPath1)" width="696" height="426" stroke="none"/>
</g>
<g stroke-width="1.1" font-family="'Verdana'" stroke-linecap="butt">
<rect x="10" y="10" clip-path="url(#clipPath1)" fill="none" width="695" height="425"/>
<text xml:space="preserve" x="17" y="29" clip-path="url(#clipPath2)" stroke="none">Operation</text>
<rect x="303" y="220" clip-path="url(#clipPath3)" fill="none" width="180" rx="7.5" opacity="0.0784" ry="7.5" height="47" stroke="gray" stroke-width="2.1"/>
<rect x="302" y="219" clip-path="url(#clipPath3)" fill="none" width="180" rx="7.5" opacity="0.1176" ry="7.5" height="47" stroke="gray" stroke-width="2.1"/>
<rect x="301" y="218" clip-path="url(#clipPath3)" fill="none" width="180" rx="7.5" opacity="0.2353" ry="7.5" height="47" stroke="gray" stroke-width="2.1"/>
<rect x="300" y="217" clip-path="url(#clipPath3)" fill="none" width="180" rx="7.5" opacity="0.3922" ry="7.5" height="47" stroke="gray" stroke-width="2.1"/>
<rect x="299" y="216" clip-path="url(#clipPath3)" fill="none" width="180" rx="7.5" opacity="0.5882" ry="7.5" height="47" stroke="gray" stroke-width="2.1"/>
<rect x="298" y="222" clip-path="url(#clipPath4)" fill="url(#linearGradient2)" width="181" height="33" stroke="none" stroke-width="2.1"/>
<path clip-path="url(#clipPath4)" fill="white" fill-rule="evenodd" d="M298 254.5 C298 258.6422 301.3578 262 305.5 262 L470.5 262 C474.6421 262 478 258.6421 478 254.5" stroke="none" stroke-width="2.1"/>
<path clip-path="url(#clipPath4)" fill="white" fill-rule="evenodd" d="M478 222.5 C478 218.3578 474.6421 215 470.5 215 C470.5 215 470.5 215 470.5 215 L305.5 215 C301.3578 215 298 218.3579 298 222.5" stroke="none" stroke-width="2.1"/>
<rect x="298" y="215" clip-path="url(#clipPath4)" fill="none" width="180" rx="7.5" ry="7.5" height="47"/>
<text x="378" y="234" clip-path="url(#clipPath5)" stroke="none" font-weight="bold" xml:space="preserve">Off</text>
<circle r="6.5" clip-path="url(#clipPath6)" cx="387.5" cy="171.5" stroke="none"/>
<rect x="528" y="85" clip-path="url(#clipPath7)" fill="none" width="118" rx="7.5" opacity="0.0784" ry="7.5" height="47" stroke="gray" stroke-width="2.1"/>
<rect x="527" y="84" clip-path="url(#clipPath7)" fill="none" width="118" rx="7.5" opacity="0.1176" ry="7.5" height="47" stroke="gray" stroke-width="2.1"/>
<rect x="526" y="83" clip-path="url(#clipPath7)" fill="none" width="118" rx="7.5" opacity="0.2353" ry="7.5" height="47" stroke="gray" stroke-width="2.1"/>
<rect x="525" y="82" clip-path="url(#clipPath7)" fill="none" width="118" rx="7.5" opacity="0.3922" ry="7.5" height="47" stroke="gray" stroke-width="2.1"/>
<rect x="524" y="81" clip-path="url(#clipPath7)" fill="none" width="118" rx="7.5" opacity="0.5882" ry="7.5" height="47" stroke="gray" stroke-width="2.1"/>
<rect x="523" y="87" clip-path="url(#clipPath8)" fill="url(#linearGradient3)" width="119" height="33" stroke="none" stroke-width="2.1"/>
<path clip-path="url(#clipPath8)" fill="white" fill-rule="evenodd" d="M523 119.5 C523 123.6421 526.3578 127 530.5 127 L633.5 127 C637.6421 127 640.9999 123.6421 640.9999 119.5" stroke="none" stroke-width="2.1"/>
<path clip-path="url(#clipPath8)" fill="white" fill-rule="evenodd" d="M640.9999 87.5 C640.9999 83.3579 637.6421 80 633.4999 80 C633.4999 80 633.4999 80 633.4999 80 L530.5 80 C526.3578 80 523 83.3579 523 87.5" stroke="none" stroke-width="2.1"/>
<rect x="523" y="80" clip-path="url(#clipPath8)" fill="none" width="118" rx="7.5" ry="7.5" height="47"/>
<text x="556" y="99" clip-path="url(#clipPath9)" stroke="none" font-weight="bold" xml:space="preserve">Prepare</text>
<rect x="125" y="85" clip-path="url(#clipPath10)" fill="none" width="118" rx="7.5" opacity="0.0784" ry="7.5" height="47" stroke="gray" stroke-width="2.1"/>
<rect x="124" y="84" clip-path="url(#clipPath10)" fill="none" width="118" rx="7.5" opacity="0.1176" ry="7.5" height="47" stroke="gray" stroke-width="2.1"/>
<rect x="123" y="83" clip-path="url(#clipPath10)" fill="none" width="118" rx="7.5" opacity="0.2353" ry="7.5" height="47" stroke="gray" stroke-width="2.1"/>
<rect x="122" y="82" clip-path="url(#clipPath10)" fill="none" width="118" rx="7.5" opacity="0.3922" ry="7.5" height="47" stroke="gray" stroke-width="2.1"/>
<rect x="121" y="81" clip-path="url(#clipPath10)" fill="none" width="118" rx="7.5" opacity="0.5882" ry="7.5" height="47" stroke="gray" stroke-width="2.1"/>
<rect x="120" y="87" clip-path="url(#clipPath11)" fill="url(#linearGradient4)" width="119" height="33" stroke="none" stroke-width="2.1"/>
<path clip-path="url(#clipPath11)" fill="white" fill-rule="evenodd" d="M120 119.5 C120 123.6421 123.3579 127 127.5 127 L230.5 127 C234.6421 127 238 123.6421 238 119.5" stroke="none" stroke-width="2.1"/>
<path clip-path="url(#clipPath11)" fill="white" fill-rule="evenodd" d="M238 87.5 C238 83.3579 234.6421 80 230.5 80 C230.5 80 230.5 80 230.5 80 L127.5 80 C123.3579 80 120 83.3579 120 87.5" stroke="none" stroke-width="2.1"/>
<rect x="120" y="80" clip-path="url(#clipPath11)" fill="none" width="118" rx="7.5" ry="7.5" height="47"/>
<text x="164" y="99" clip-path="url(#clipPath12)" stroke="none" font-weight="bold" xml:space="preserve">Stop</text>
<rect x="125" y="350" clip-path="url(#clipPath13)" fill="none" width="118" rx="7.5" opacity="0.0784" ry="7.5" height="47" stroke="gray" stroke-width="2.1"/>
<rect x="124" y="349" clip-path="url(#clipPath13)" fill="none" width="118" rx="7.5" opacity="0.1176" ry="7.5" height="47" stroke="gray" stroke-width="2.1"/>
<rect x="123" y="348" clip-path="url(#clipPath13)" fill="none" width="118" rx="7.5" opacity="0.2353" ry="7.5" height="47" stroke="gray" stroke-width="2.1"/>
<rect x="122" y="347" clip-path="url(#clipPath13)" fill="none" width="118" rx="7.5" opacity="0.3922" ry="7.5" height="47" stroke="gray" stroke-width="2.1"/>
<rect x="121" y="346" clip-path="url(#clipPath13)" fill="none" width="118" rx="7.5" opacity="0.5882" ry="7.5" height="47" stroke="gray" stroke-width="2.1"/>
<rect x="120" y="352" clip-path="url(#clipPath14)" fill="url(#linearGradient5)" width="119" height="33" stroke="none" stroke-width="2.1"/>
<path clip-path="url(#clipPath14)" fill="white" fill-rule="evenodd" d="M120 384.5 C120 388.6421 123.3579 392 127.5 392 L230.5 392 C234.6421 392 238 388.6421 238 384.5" stroke="none" stroke-width="2.1"/>
<path clip-path="url(#clipPath14)" fill="white" fill-rule="evenodd" d="M238 352.5 C238 348.3578 234.6421 345 230.5 345 C230.5 345 230.5 345 230.5 345 L127.5 345 C123.3579 345 120 348.3578 120 352.5" stroke="none" stroke-width="2.1"/>
<rect x="120" y="345" clip-path="url(#clipPath14)" fill="none" width="118" rx="7.5" ry="7.5" height="47"/>
<text x="151" y="364" clip-path="url(#clipPath15)" stroke="none" font-weight="bold" xml:space="preserve">Continue</text>
<rect x="528" y="350" clip-path="url(#clipPath16)" fill="none" width="118" rx="7.5" opacity="0.0784" ry="7.5" height="47" stroke="gray" stroke-width="2.1"/>
<rect x="527" y="349" clip-path="url(#clipPath16)" fill="none" width="118" rx="7.5" opacity="0.1176" ry="7.5" height="47" stroke="gray" stroke-width="2.1"/>
<rect x="526" y="348" clip-path="url(#clipPath16)" fill="none" width="118" rx="7.5" opacity="0.2353" ry="7.5" height="47" stroke="gray" stroke-width="2.1"/>
<rect x="525" y="347" clip-path="url(#clipPath16)" fill="none" width="118" rx="7.5" opacity="0.3922" ry="7.5" height="47" stroke="gray" stroke-width="2.1"/>
<rect x="524" y="346" clip-path="url(#clipPath16)" fill="none" width="118" rx="7.5" opacity="0.5882" ry="7.5" height="47" stroke="gray" stroke-width="2.1"/>
<rect x="523" y="352" clip-path="url(#clipPath17)" fill="url(#linearGradient6)" width="119" height="33" stroke="none" stroke-width="2.1"/>
<path clip-path="url(#clipPath17)" fill="white" fill-rule="evenodd" d="M523 384.5 C523 388.6421 526.3578 392 530.5 392 L633.5 392 C637.6421 392 640.9999 388.6421 640.9999 384.5" stroke="none" stroke-width="2.1"/>
<path clip-path="url(#clipPath17)" fill="white" fill-rule="evenodd" d="M640.9999 352.5 C640.9999 348.3578 637.6421 345 633.4999 345 C633.4999 345 633.4999 345 633.4999 345 L530.5 345 C526.3578 345 523 348.3578 523 352.5" stroke="none" stroke-width="2.1"/>
<rect x="523" y="345" clip-path="url(#clipPath17)" fill="none" width="118" rx="7.5" ry="7.5" height="47"/>
<text x="573" y="364" clip-path="url(#clipPath18)" stroke="none" font-weight="bold" xml:space="preserve">Go</text>
<line clip-path="url(#clipPath19)" fill="none" x1="208" x2="208" y1="128" y2="225"/>
<line clip-path="url(#clipPath19)" fill="none" x1="208" x2="298" y1="225" y2="225"/>
<polygon clip-path="url(#clipPath20)" points=" 298 225 291 228 291 222" stroke="none"/>
<polygon fill="none" clip-path="url(#clipPath20)" points=" 298 225 291 228 291 222"/>
<text xml:space="preserve" x="214" y="217" clip-path="url(#clipPath21)" stroke="none">onOff</text>
<line clip-path="url(#clipPath19)" fill="none" x1="224" x2="224" y1="80" y2="50"/>
<line clip-path="url(#clipPath19)" fill="none" x1="224" x2="172" y1="50" y2="50"/>
<line clip-path="url(#clipPath19)" fill="none" x1="172" x2="172" y1="50" y2="80"/>
<polygon clip-path="url(#clipPath22)" points=" 172 80 169 73 175 73" stroke="none"/>
<polygon fill="none" clip-path="url(#clipPath22)" points=" 172 80 169 73 175 73"/>
<text xml:space="preserve" x="231" y="64" clip-path="url(#clipPath23)" stroke="none">reset</text>
<line clip-path="url(#clipPath19)" fill="none" x1="179" x2="179" y1="345" y2="128"/>
<polygon clip-path="url(#clipPath24)" points=" 179 128 182 135 176 135" stroke="none"/>
<polygon fill="none" clip-path="url(#clipPath24)" points=" 179 128 182 135 176 135"/>
<text xml:space="preserve" x="81" y="238" clip-path="url(#clipPath25)" stroke="none">switchPhase /</text>
<text xml:space="preserve" x="81" y="252" clip-path="url(#clipPath25)" stroke="none">raise stop</text>
<line clip-path="url(#clipPath19)" fill="none" x1="561" x2="561" y1="345" y2="254"/>
<line clip-path="url(#clipPath19)" fill="none" x1="561" x2="479" y1="254" y2="254"/>
<polygon clip-path="url(#clipPath26)" points=" 479 254 486 251 486 257" stroke="none"/>
<polygon fill="none" clip-path="url(#clipPath26)" points=" 479 254 486 251 486 257"/>
<text xml:space="preserve" x="521" y="273" clip-path="url(#clipPath27)" stroke="none">onOff</text>
<line clip-path="url(#clipPath19)" fill="none" x1="323" x2="323" y1="215" y2="120"/>
<line clip-path="url(#clipPath19)" fill="none" x1="323" x2="239" y1="120" y2="120"/>
<polygon clip-path="url(#clipPath28)" points=" 239 120 246 117 246 123" stroke="none"/>
<polygon fill="none" clip-path="url(#clipPath28)" points=" 239 120 246 117 246 123"/>
<text xml:space="preserve" x="284" y="141" clip-path="url(#clipPath29)" stroke="none">onOff</text>
<line clip-path="url(#clipPath19)" fill="none" x1="239" x2="523" y1="102" y2="102"/>
<polygon clip-path="url(#clipPath30)" points=" 523 102 516 105 516 99" stroke="none"/>
<polygon fill="none" clip-path="url(#clipPath30)" points=" 523 102 516 105 516 99"/>
<text xml:space="preserve" x="341" y="94" clip-path="url(#clipPath31)" stroke="none">switchPhase</text>
<line clip-path="url(#clipPath19)" fill="none" x1="388" x2="388" y1="180" y2="215"/>
<polygon clip-path="url(#clipPath32)" points=" 388 215 385 208 391 208" stroke="none"/>
<polygon fill="none" clip-path="url(#clipPath32)" points=" 388 215 385 208 391 208"/>
<line clip-path="url(#clipPath19)" fill="none" x1="565" x2="565" y1="128" y2="225"/>
<line clip-path="url(#clipPath19)" fill="none" x1="565" x2="479" y1="225" y2="225"/>
<polygon clip-path="url(#clipPath33)" points=" 479 225 486 222 486 228" stroke="none"/>
<polygon fill="none" clip-path="url(#clipPath33)" points=" 479 225 486 222 486 228"/>
<text xml:space="preserve" x="526" y="220" clip-path="url(#clipPath34)" stroke="none">onOff</text>
<line clip-path="url(#clipPath19)" fill="none" x1="452" x2="452" y1="263" y2="300"/>
<line clip-path="url(#clipPath19)" fill="none" x1="452" x2="323" y1="300" y2="300"/>
<line clip-path="url(#clipPath19)" fill="none" x1="323" x2="323" y1="300" y2="263"/>
<polygon clip-path="url(#clipPath35)" points=" 323 263 326 270 320 270" stroke="none"/>
<polygon fill="none" clip-path="url(#clipPath35)" points=" 323 263 326 270 320 270"/>
<text xml:space="preserve" x="328" y="319" clip-path="url(#clipPath36)" stroke="none">reset, switchPhase</text>
<line clip-path="url(#clipPath19)" fill="none" x1="582" x2="582" y1="128" y2="345"/>
<polygon clip-path="url(#clipPath37)" points=" 582 345 579 338 585 338" stroke="none"/>
<polygon fill="none" clip-path="url(#clipPath37)" points=" 582 345 579 338 585 338"/>
<text xml:space="preserve" x="590" y="238" clip-path="url(#clipPath38)" stroke="none">switchPhase /</text>
<text xml:space="preserve" x="590" y="252" clip-path="url(#clipPath38)" stroke="none">raise go</text>
<line clip-path="url(#clipPath19)" fill="none" x1="580" x2="580" y1="393" y2="423"/>
<line clip-path="url(#clipPath19)" fill="none" x1="580" x2="35" y1="423" y2="423"/>
<line clip-path="url(#clipPath19)" fill="none" x1="35" x2="35" y1="423" y2="95"/>
<line clip-path="url(#clipPath19)" fill="none" x1="35" x2="120" y1="95" y2="95"/>
<polygon clip-path="url(#clipPath39)" points=" 120 95 113 98 113 92" stroke="none"/>
<polygon fill="none" clip-path="url(#clipPath39)" points=" 120 95 113 98 113 92"/>
<text xml:space="preserve" x="537" y="414" clip-path="url(#clipPath40)" stroke="none">reset</text>
<line clip-path="url(#clipPath19)" fill="none" x1="582" x2="582" y1="80" y2="32"/>
<line clip-path="url(#clipPath19)" fill="none" x1="582" x2="154" y1="32" y2="32"/>
<line clip-path="url(#clipPath19)" fill="none" x1="154" x2="154" y1="32" y2="80"/>
<polygon clip-path="url(#clipPath41)" points=" 154 80 151 73 157 73" stroke="none"/>
<polygon fill="none" clip-path="url(#clipPath41)" points=" 154 80 151 73 157 73"/>
<text xml:space="preserve" x="545" y="28" clip-path="url(#clipPath42)" stroke="none">reset</text>
<line clip-path="url(#clipPath19)" fill="none" x1="120" x2="50" y1="369" y2="369"/>
<line clip-path="url(#clipPath19)" fill="none" x1="50" x2="50" y1="369" y2="110"/>
<line clip-path="url(#clipPath19)" fill="none" x1="50" x2="120" y1="110" y2="110"/>
<polygon clip-path="url(#clipPath43)" points=" 120 110 113 113 113 107" stroke="none"/>
<polygon fill="none" clip-path="url(#clipPath43)" points=" 120 110 113 113 113 107"/>
<text xml:space="preserve" x="76" y="359" clip-path="url(#clipPath44)" stroke="none">reset</text>
<line clip-path="url(#clipPath19)" fill="none" x1="523" x2="239" y1="367" y2="367"/>
<polygon clip-path="url(#clipPath45)" points=" 239 367 246 364 246 370" stroke="none"/>
<polygon fill="none" clip-path="url(#clipPath45)" points=" 239 367 246 364 246 370"/>
<text xml:space="preserve" x="344" y="391" clip-path="url(#clipPath46)" stroke="none">switchPhase</text>
<line clip-path="url(#clipPath19)" fill="none" x1="209" x2="209" y1="345" y2="250"/>
<line clip-path="url(#clipPath19)" fill="none" x1="209" x2="298" y1="250" y2="250"/>
<polygon clip-path="url(#clipPath47)" points=" 298 250 291 253 291 247" stroke="none"/>
<polygon fill="none" clip-path="url(#clipPath47)" points=" 298 250 291 253 291 247"/>
<text xml:space="preserve" x="215" y="269" clip-path="url(#clipPath48)" stroke="none">onOff</text>
</g>
</g>
</svg>
