<?xml version="1.0" encoding="UTF-8"?><svg xmlns="http://www.w3.org/2000/svg" xmlns:xlink="http://www.w3.org/1999/xlink" stroke-dasharray="none" shape-rendering="auto" font-family="'Dialog'" width="542" text-rendering="auto" fill-opacity="1" contentScriptType="text/ecmascript" color-interpolation="auto" color-rendering="auto" preserveAspectRatio="xMidYMid meet" font-size="12" viewBox="0 0 542 547" fill="black" stroke="black" image-rendering="auto" stroke-miterlimit="10" zoomAndPan="magnify" version="1.0" stroke-linecap="square" stroke-linejoin="miter" contentStyleType="text/css" font-style="normal" height="547" stroke-width="1" stroke-dashoffset="0" font-weight="normal" stroke-opacity="1">
<!--Generated by the Batik Graphics2D SVG Generator-->
<defs id="genericDefs"/>
<g>
<defs id="defs1">
<linearGradient x1="10" x2="10" y1="10" gradientUnits="userSpaceOnUse" y2="537" xlink:type="simple" xlink:actuate="onLoad" id="linearGradient1" xlink:show="other" spreadMethod="pad">
<stop stop-opacity="1" stop-color="white" offset="0%"/>
<stop stop-opacity="1" stop-color="white" offset="100%"/>
</linearGradient>
<linearGradient x1="178" x2="178" y1="62" gradientUnits="userSpaceOnUse" y2="95" xlink:type="simple" xlink:actuate="onLoad" id="linearGradient2" xlink:show="other" spreadMethod="pad">
<stop stop-opacity="1" stop-color="white" offset="0%"/>
<stop stop-opacity="1" stop-color="white" offset="100%"/>
</linearGradient>
<linearGradient x1="21" x2="21" y1="177" gradientUnits="userSpaceOnUse" y2="513" xlink:type="simple" xlink:actuate="onLoad" id="linearGradient3" xlink:show="other" spreadMethod="pad">
<stop stop-opacity="1" stop-color="rgb(255,239,239)" offset="0%"/>
<stop stop-opacity="1" stop-color="rgb(255,128,128)" offset="100%"/>
</linearGradient>
<linearGradient x1="27" x2="27" y1="209" gradientUnits="userSpaceOnUse" y2="516" xlink:type="simple" xlink:actuate="onLoad" id="linearGradient4" xlink:show="other" spreadMethod="pad">
<stop stop-opacity="1" stop-color="white" offset="0%"/>
<stop stop-opacity="1" stop-color="white" offset="100%"/>
</linearGradient>
<linearGradient x1="99" x2="99" y1="247" gradientUnits="userSpaceOnUse" y2="280" xlink:type="simple" xlink:actuate="onLoad" id="linearGradient5" xlink:show="other" spreadMethod="pad">
<stop stop-opacity="1" stop-color="rgb(255,239,239)" offset="0%"/>
<stop stop-opacity="1" stop-color="rgb(255,128,128)" offset="100%"/>
</linearGradient>
<linearGradient x1="349" x2="349" y1="247" gradientUnits="userSpaceOnUse" y2="280" xlink:type="simple" xlink:actuate="onLoad" id="linearGradient6" xlink:show="other" spreadMethod="pad">
<stop stop-opacity="1" stop-color="white" offset="0%"/>
<stop stop-opacity="1" stop-color="white" offset="100%"/>
</linearGradient>
<linearGradient x1="105" x2="105" y1="458" gradientUnits="userSpaceOnUse" y2="491" xlink:type="simple" xlink:actuate="onLoad" id="linearGradient7" xlink:show="other" spreadMethod="pad">
<stop stop-opacity="1" stop-color="white" offset="0%"/>
<stop stop-opacity="1" stop-color="white" offset="100%"/>
</linearGradient>
<linearGradient x1="349" x2="349" y1="451" gradientUnits="userSpaceOnUse" y2="484" xlink:type="simple" xlink:actuate="onLoad" id="linearGradient8" xlink:show="other" spreadMethod="pad">
<stop stop-opacity="1" stop-color="white" offset="0%"/>
<stop stop-opacity="1" stop-color="white" offset="100%"/>
</linearGradient>
<clipPath clipPathUnits="userSpaceOnUse" id="clipPath1">
<path d="M9 9 L533 9 L533 538 L9 538 L9 9 Z"/>
</clipPath>
<clipPath clipPathUnits="userSpaceOnUse" id="clipPath2">
<path d="M16 15 L81 15 L81 31 L16 31 L16 15 Z"/>
</clipPath>
<clipPath clipPathUnits="userSpaceOnUse" id="clipPath3">
<path d="M172 49 L365 49 L365 109 L172 109 L172 49 Z"/>
</clipPath>
<clipPath clipPathUnits="userSpaceOnUse" id="clipPath4">
<path d="M177 54 L360 54 L360 104 L177 104 L177 54 Z"/>
</clipPath>
<clipPath clipPathUnits="userSpaceOnUse" id="clipPath5">
<path d="M257 60 L281 60 L281 76 L257 76 L257 60 Z"/>
</clipPath>
<clipPath clipPathUnits="userSpaceOnUse" id="clipPath6">
<path d="M119 70 L136 70 L136 87 L119 87 L119 70 Z"/>
</clipPath>
<clipPath clipPathUnits="userSpaceOnUse" id="clipPath7">
<path d="M15 164 L522 164 L522 527 L15 527 L15 164 Z"/>
</clipPath>
<clipPath clipPathUnits="userSpaceOnUse" id="clipPath8">
<path d="M20 169 L517 169 L517 522 L20 522 L20 169 Z"/>
</clipPath>
<clipPath clipPathUnits="userSpaceOnUse" id="clipPath9">
<path d="M258 175 L280 175 L280 191 L258 191 L258 175 Z"/>
</clipPath>
<clipPath clipPathUnits="userSpaceOnUse" id="clipPath10">
<path d="M26 208 L512 208 L512 517 L26 517 L26 208 Z"/>
</clipPath>
<clipPath clipPathUnits="userSpaceOnUse" id="clipPath11">
<path d="M33 214 L74 214 L74 230 L33 230 L33 214 Z"/>
</clipPath>
<clipPath clipPathUnits="userSpaceOnUse" id="clipPath12">
<path d="M43 255 L60 255 L60 272 L43 272 L43 255 Z"/>
</clipPath>
<clipPath clipPathUnits="userSpaceOnUse" id="clipPath13">
<path d="M93 234 L224 234 L224 294 L93 294 L93 234 Z"/>
</clipPath>
<clipPath clipPathUnits="userSpaceOnUse" id="clipPath14">
<path d="M98 239 L219 239 L219 289 L98 289 L98 239 Z"/>
</clipPath>
<clipPath clipPathUnits="userSpaceOnUse" id="clipPath15">
<path d="M142 245 L175 245 L175 261 L142 261 L142 245 Z"/>
</clipPath>
<clipPath clipPathUnits="userSpaceOnUse" id="clipPath16">
<path d="M343 234 L474 234 L474 294 L343 294 L343 234 Z"/>
</clipPath>
<clipPath clipPathUnits="userSpaceOnUse" id="clipPath17">
<path d="M348 239 L469 239 L469 289 L348 289 L348 239 Z"/>
</clipPath>
<clipPath clipPathUnits="userSpaceOnUse" id="clipPath18">
<path d="M381 245 L436 245 L436 261 L381 261 L381 245 Z"/>
</clipPath>
<clipPath clipPathUnits="userSpaceOnUse" id="clipPath19">
<path d="M99 445 L224 445 L224 505 L99 505 L99 445 Z"/>
</clipPath>
<clipPath clipPathUnits="userSpaceOnUse" id="clipPath20">
<path d="M104 450 L219 450 L219 500 L104 500 L104 450 Z"/>
</clipPath>
<clipPath clipPathUnits="userSpaceOnUse" id="clipPath21">
<path d="M132 456 L192 456 L192 472 L132 472 L132 456 Z"/>
</clipPath>
<clipPath clipPathUnits="userSpaceOnUse" id="clipPath22">
<path d="M343 438 L474 438 L474 498 L343 498 L343 438 Z"/>
</clipPath>
<clipPath clipPathUnits="userSpaceOnUse" id="clipPath23">
<path d="M348 443 L469 443 L469 493 L348 493 L348 443 Z"/>
</clipPath>
<clipPath clipPathUnits="userSpaceOnUse" id="clipPath24">
<path d="M398 449 L419 449 L419 465 L398 465 L398 449 Z"/>
</clipPath>
<clipPath clipPathUnits="userSpaceOnUse" id="clipPath25">
<path d="M-1 -1 L543 -1 L543 548 L-1 548 L-1 -1 Z"/>
</clipPath>
<clipPath clipPathUnits="userSpaceOnUse" id="clipPath26">
<path d="M154 287 L163 287 L163 297 L154 297 L154 287 Z"/>
</clipPath>
<clipPath clipPathUnits="userSpaceOnUse" id="clipPath27">
<path d="M58 354 L149 354 L149 384 L58 384 L58 354 Z"/>
</clipPath>
<clipPath clipPathUnits="userSpaceOnUse" id="clipPath28">
<path d="M227 102 L236 102 L236 112 L227 112 L227 102 Z"/>
</clipPath>
<clipPath clipPathUnits="userSpaceOnUse" id="clipPath29">
<path d="M190 130 L227 130 L227 146 L190 146 L190 130 Z"/>
</clipPath>
<clipPath clipPathUnits="userSpaceOnUse" id="clipPath30">
<path d="M464 162 L473 162 L473 172 L464 172 L464 162 Z"/>
</clipPath>
<clipPath clipPathUnits="userSpaceOnUse" id="clipPath31">
<path d="M427 112 L462 112 L462 128 L427 128 L427 112 Z"/>
</clipPath>
<clipPath clipPathUnits="userSpaceOnUse" id="clipPath32">
<path d="M324 47 L333 47 L333 57 L324 57 L324 47 Z"/>
</clipPath>
<clipPath clipPathUnits="userSpaceOnUse" id="clipPath33">
<path d="M404 35 L526 35 L526 51 L404 51 L404 35 Z"/>
</clipPath>
<clipPath clipPathUnits="userSpaceOnUse" id="clipPath34">
<path d="M217 469 L227 469 L227 478 L217 478 L217 469 Z"/>
</clipPath>
<clipPath clipPathUnits="userSpaceOnUse" id="clipPath35">
<path d="M245 476 L326 476 L326 492 L245 492 L245 476 Z"/>
</clipPath>
<clipPath clipPathUnits="userSpaceOnUse" id="clipPath36">
<path d="M91 259 L101 259 L101 268 L91 268 L91 259 Z"/>
</clipPath>
<clipPath clipPathUnits="userSpaceOnUse" id="clipPath37">
<path d="M341 257 L351 257 L351 266 L341 266 L341 257 Z"/>
</clipPath>
<clipPath clipPathUnits="userSpaceOnUse" id="clipPath38">
<path d="M242 242 L323 242 L323 258 L242 258 L242 242 Z"/>
</clipPath>
<clipPath clipPathUnits="userSpaceOnUse" id="clipPath39">
<path d="M170 74 L180 74 L180 83 L170 83 L170 74 Z"/>
</clipPath>
<clipPath clipPathUnits="userSpaceOnUse" id="clipPath40">
<path d="M404 436 L413 436 L413 446 L404 446 L404 436 Z"/>
</clipPath>
<clipPath clipPathUnits="userSpaceOnUse" id="clipPath41">
<path d="M418 349 L509 349 L509 379 L418 379 L418 349 Z"/>
</clipPath>
<clipPath clipPathUnits="userSpaceOnUse" id="clipPath42">
<path d="M298 162 L307 162 L307 172 L298 172 L298 162 Z"/>
</clipPath>
<clipPath clipPathUnits="userSpaceOnUse" id="clipPath43">
<path d="M305 130 L342 130 L342 146 L305 146 L305 130 Z"/>
</clipPath>
</defs>
<g fill="url(#linearGradient1)" font-family="'Verdana'" stroke-linejoin="round" stroke="url(#linearGradient1)" stroke-width="0" stroke-miterlimit="0">
<rect x="10" y="10" clip-path="url(#clipPath1)" width="522" height="527" stroke="none"/>
</g>
<g stroke-width="1.1" font-family="'Verdana'" stroke-linecap="butt">
<rect x="10" y="10" clip-path="url(#clipPath1)" fill="none" width="521" height="526"/>
<text xml:space="preserve" x="17" y="29" clip-path="url(#clipPath2)" stroke="none">Operation</text>
<rect x="183" y="60" clip-path="url(#clipPath3)" fill="none" width="180" rx="7.5" opacity="0.0784" ry="7.5" height="47" stroke="gray" stroke-width="2.1"/>
<rect x="182" y="59" clip-path="url(#clipPath3)" fill="none" width="180" rx="7.5" opacity="0.1176" ry="7.5" height="47" stroke="gray" stroke-width="2.1"/>
<rect x="181" y="58" clip-path="url(#clipPath3)" fill="none" width="180" rx="7.5" opacity="0.2353" ry="7.5" height="47" stroke="gray" stroke-width="2.1"/>
<rect x="180" y="57" clip-path="url(#clipPath3)" fill="none" width="180" rx="7.5" opacity="0.3922" ry="7.5" height="47" stroke="gray" stroke-width="2.1"/>
<rect x="179" y="56" clip-path="url(#clipPath3)" fill="none" width="180" rx="7.5" opacity="0.5882" ry="7.5" height="47" stroke="gray" stroke-width="2.1"/>
<rect x="178" y="62" clip-path="url(#clipPath4)" fill="url(#linearGradient2)" width="181" height="33" stroke="none" stroke-width="2.1"/>
<path clip-path="url(#clipPath4)" fill="white" fill-rule="evenodd" d="M178 94.5 C178 98.6421 181.3579 102 185.5 102 L350.5 102 C354.6421 102 358 98.6421 358 94.5" stroke="none" stroke-width="2.1"/>
<path clip-path="url(#clipPath4)" fill="white" fill-rule="evenodd" d="M358 62.5 C358 58.3579 354.6421 55 350.5 55 C350.5 55 350.5 55 350.5 55 L185.5 55 C181.3578 55 178 58.3579 178 62.5" stroke="none" stroke-width="2.1"/>
<rect x="178" y="55" clip-path="url(#clipPath4)" fill="none" width="180" rx="7.5" ry="7.5" height="47"/>
<text x="258" y="74" clip-path="url(#clipPath5)" stroke="none" font-weight="bold" xml:space="preserve">Off</text>
<circle r="6.5" clip-path="url(#clipPath6)" cx="126.5" cy="77.5" stroke="none"/>
<rect x="26" y="175" clip-path="url(#clipPath7)" fill="none" width="494" rx="7.5" opacity="0.0784" ry="7.5" height="350" stroke="gray" stroke-width="2.1"/>
<rect x="25" y="174" clip-path="url(#clipPath7)" fill="none" width="494" rx="7.5" opacity="0.1176" ry="7.5" height="350" stroke="gray" stroke-width="2.1"/>
<rect x="24" y="173" clip-path="url(#clipPath7)" fill="none" width="494" rx="7.5" opacity="0.2353" ry="7.5" height="350" stroke="gray" stroke-width="2.1"/>
<rect x="23" y="172" clip-path="url(#clipPath7)" fill="none" width="494" rx="7.5" opacity="0.3922" ry="7.5" height="350" stroke="gray" stroke-width="2.1"/>
<rect x="22" y="171" clip-path="url(#clipPath7)" fill="none" width="494" rx="7.5" opacity="0.5882" ry="7.5" height="350" stroke="gray" stroke-width="2.1"/>
<rect x="21" y="177" clip-path="url(#clipPath8)" fill="url(#linearGradient3)" width="495" height="336" stroke="none" stroke-width="2.1"/>
<path clip-path="url(#clipPath8)" fill="rgb(255,128,128)" fill-rule="evenodd" d="M21 512.5 C21 516.6421 24.3579 520 28.5 520 L507.5 520 C511.6421 520 515 516.6421 515 512.5" stroke="none" stroke-width="2.1"/>
<path clip-path="url(#clipPath8)" fill="rgb(255,239,239)" fill-rule="evenodd" d="M515 177.5 C515 173.3578 511.6421 170 507.5 170 C507.5 170 507.5 170 507.5 170 L28.5 170 C24.3579 170 21 173.3579 21 177.5" stroke="none" stroke-width="2.1"/>
<rect x="21" y="170" clip-path="url(#clipPath8)" fill="none" width="494" rx="7.5" ry="7.5" height="350" stroke="red"/>
<text x="259" y="189" clip-path="url(#clipPath9)" stroke="none" font-weight="bold" xml:space="preserve">On</text>
<rect x="27" y="209" clip-path="url(#clipPath10)" fill="url(#linearGradient4)" width="484" height="307" stroke="none"/>
<rect x="27" y="209" clip-path="url(#clipPath10)" fill="none" width="483" height="306"/>
<text xml:space="preserve" x="34" y="228" clip-path="url(#clipPath11)" stroke="none">Phase</text>
<circle r="6.5" clip-path="url(#clipPath12)" cx="50.5" cy="262.5" stroke="none"/>
<rect x="104" y="245" clip-path="url(#clipPath13)" fill="none" width="118" rx="7.5" opacity="0.0784" ry="7.5" height="47" stroke="gray" stroke-width="2.1"/>
<rect x="103" y="244" clip-path="url(#clipPath13)" fill="none" width="118" rx="7.5" opacity="0.1176" ry="7.5" height="47" stroke="gray" stroke-width="2.1"/>
<rect x="102" y="243" clip-path="url(#clipPath13)" fill="none" width="118" rx="7.5" opacity="0.2353" ry="7.5" height="47" stroke="gray" stroke-width="2.1"/>
<rect x="101" y="242" clip-path="url(#clipPath13)" fill="none" width="118" rx="7.5" opacity="0.3922" ry="7.5" height="47" stroke="gray" stroke-width="2.1"/>
<rect x="100" y="241" clip-path="url(#clipPath13)" fill="none" width="118" rx="7.5" opacity="0.5882" ry="7.5" height="47" stroke="gray" stroke-width="2.1"/>
<rect x="99" y="247" clip-path="url(#clipPath14)" fill="url(#linearGradient5)" width="119" height="33" stroke="none" stroke-width="2.1"/>
<path clip-path="url(#clipPath14)" fill="rgb(255,128,128)" fill-rule="evenodd" d="M99 279.5 C99 283.6422 102.3579 287 106.5 287 L209.5 287 C213.6421 287 217 283.6421 217 279.5" stroke="none" stroke-width="2.1"/>
<path clip-path="url(#clipPath14)" fill="rgb(255,239,239)" fill-rule="evenodd" d="M217 247.5 C217 243.3579 213.6421 240 209.5 240 C209.5 240 209.5 240 209.5 240 L106.5 240 C102.3579 240 99 243.3579 99 247.5" stroke="none" stroke-width="2.1"/>
<rect x="99" y="240" clip-path="url(#clipPath14)" fill="none" width="118" rx="7.5" ry="7.5" height="47" stroke="red"/>
<text x="143" y="259" clip-path="url(#clipPath15)" stroke="none" font-weight="bold" xml:space="preserve">Stop</text>
<rect x="354" y="245" clip-path="url(#clipPath16)" fill="none" width="118" rx="7.5" opacity="0.0784" ry="7.5" height="47" stroke="gray" stroke-width="2.1"/>
<rect x="353" y="244" clip-path="url(#clipPath16)" fill="none" width="118" rx="7.5" opacity="0.1176" ry="7.5" height="47" stroke="gray" stroke-width="2.1"/>
<rect x="352" y="243" clip-path="url(#clipPath16)" fill="none" width="118" rx="7.5" opacity="0.2353" ry="7.5" height="47" stroke="gray" stroke-width="2.1"/>
<rect x="351" y="242" clip-path="url(#clipPath16)" fill="none" width="118" rx="7.5" opacity="0.3922" ry="7.5" height="47" stroke="gray" stroke-width="2.1"/>
<rect x="350" y="241" clip-path="url(#clipPath16)" fill="none" width="118" rx="7.5" opacity="0.5882" ry="7.5" height="47" stroke="gray" stroke-width="2.1"/>
<rect x="349" y="247" clip-path="url(#clipPath17)" fill="url(#linearGradient6)" width="119" height="33" stroke="none" stroke-width="2.1"/>
<path clip-path="url(#clipPath17)" fill="white" fill-rule="evenodd" d="M349 279.5 C349 283.6422 352.3578 287 356.5 287 L459.5 287 C463.6421 287 467 283.6421 467 279.5" stroke="none" stroke-width="2.1"/>
<path clip-path="url(#clipPath17)" fill="white" fill-rule="evenodd" d="M467 247.5 C467 243.3579 463.6421 240 459.5 240 C459.5 240 459.5 240 459.5 240 L356.5 240 C352.3578 240 349 243.3579 349 247.5" stroke="none" stroke-width="2.1"/>
<rect x="349" y="240" clip-path="url(#clipPath17)" fill="none" width="118" rx="7.5" ry="7.5" height="47"/>
<text x="382" y="259" clip-path="url(#clipPath18)" stroke="none" font-weight="bold" xml:space="preserve">Prepare</text>
<rect x="110" y="456" clip-path="url(#clipPath19)" fill="none" width="112" rx="7.5" opacity="0.0784" ry="7.5" height="47" stroke="gray" stroke-width="2.1"/>
<rect x="109" y="455" clip-path="url(#clipPath19)" fill="none" width="112" rx="7.5" opacity="0.1176" ry="7.5" height="47" stroke="gray" stroke-width="2.1"/>
<rect x="108" y="454" clip-path="url(#clipPath19)" fill="none" width="112" rx="7.5" opacity="0.2353" ry="7.5" height="47" stroke="gray" stroke-width="2.1"/>
<rect x="107" y="453" clip-path="url(#clipPath19)" fill="none" width="112" rx="7.5" opacity="0.3922" ry="7.5" height="47" stroke="gray" stroke-width="2.1"/>
<rect x="106" y="452" clip-path="url(#clipPath19)" fill="none" width="112" rx="7.5" opacity="0.5882" ry="7.5" height="47" stroke="gray" stroke-width="2.1"/>
<rect x="105" y="458" clip-path="url(#clipPath20)" fill="url(#linearGradient7)" width="113" height="33" stroke="none" stroke-width="2.1"/>
<path clip-path="url(#clipPath20)" fill="white" fill-rule="evenodd" d="M105 490.5 C105 494.6421 108.3579 498 112.5 498 L209.5 498 C213.6421 498 217 494.6421 217 490.5" stroke="none" stroke-width="2.1"/>
<path clip-path="url(#clipPath20)" fill="white" fill-rule="evenodd" d="M217 458.5 C217 454.3578 213.6421 451 209.5 451 C209.5 451 209.5 451 209.5 451 L112.5 451 C108.3579 451 105 454.3578 105 458.5" stroke="none" stroke-width="2.1"/>
<rect x="105" y="451" clip-path="url(#clipPath20)" fill="none" width="112" rx="7.5" ry="7.5" height="47"/>
<text x="133" y="470" clip-path="url(#clipPath21)" stroke="none" font-weight="bold" xml:space="preserve">Continue</text>
<rect x="354" y="449" clip-path="url(#clipPath22)" fill="none" width="118" rx="7.5" opacity="0.0784" ry="7.5" height="47" stroke="gray" stroke-width="2.1"/>
<rect x="353" y="448" clip-path="url(#clipPath22)" fill="none" width="118" rx="7.5" opacity="0.1176" ry="7.5" height="47" stroke="gray" stroke-width="2.1"/>
<rect x="352" y="447" clip-path="url(#clipPath22)" fill="none" width="118" rx="7.5" opacity="0.2353" ry="7.5" height="47" stroke="gray" stroke-width="2.1"/>
<rect x="351" y="446" clip-path="url(#clipPath22)" fill="none" width="118" rx="7.5" opacity="0.3922" ry="7.5" height="47" stroke="gray" stroke-width="2.1"/>
<rect x="350" y="445" clip-path="url(#clipPath22)" fill="none" width="118" rx="7.5" opacity="0.5882" ry="7.5" height="47" stroke="gray" stroke-width="2.1"/>
<rect x="349" y="451" clip-path="url(#clipPath23)" fill="url(#linearGradient8)" width="119" height="33" stroke="none" stroke-width="2.1"/>
<path clip-path="url(#clipPath23)" fill="white" fill-rule="evenodd" d="M349 483.5 C349 487.6422 352.3578 491 356.5 491 L459.5 491 C463.6421 491 467 487.6421 467 483.5" stroke="none" stroke-width="2.1"/>
<path clip-path="url(#clipPath23)" fill="white" fill-rule="evenodd" d="M467 451.5 C467 447.3578 463.6421 444 459.5 444 C459.5 444 459.5 444 459.5 444 L356.5 444 C352.3578 444 349 447.3578 349 451.5" stroke="none" stroke-width="2.1"/>
<rect x="349" y="444" clip-path="url(#clipPath23)" fill="none" width="118" rx="7.5" ry="7.5" height="47"/>
<text x="399" y="463" clip-path="url(#clipPath24)" stroke="none" font-weight="bold" xml:space="preserve">Go</text>
<line clip-path="url(#clipPath25)" fill="none" x1="158" x2="158" y1="451" y2="288"/>
<polygon clip-path="url(#clipPath26)" points=" 158 288 161 295 155 295" stroke="none"/>
<polygon fill="none" clip-path="url(#clipPath26)" points=" 158 288 161 295 155 295"/>
<text xml:space="preserve" x="59" y="368" clip-path="url(#clipPath27)" stroke="none">switchPhase /</text>
<text xml:space="preserve" x="59" y="382" clip-path="url(#clipPath27)" stroke="none">raise stop</text>
<line clip-path="url(#clipPath25)" fill="none" x1="231" x2="231" y1="170" y2="103"/>
<polygon clip-path="url(#clipPath28)" points=" 231 103 234 110 228 110" stroke="none"/>
<polygon fill="none" clip-path="url(#clipPath28)" points=" 231 103 234 110 228 110"/>
<text xml:space="preserve" x="191" y="144" clip-path="url(#clipPath29)" stroke="none">onOff</text>
<line clip-path="url(#clipPath25)" fill="none" x1="415" x2="415" y1="170" y2="132"/>
<line clip-path="url(#clipPath25)" fill="none" x1="415" x2="468" y1="132" y2="132"/>
<line clip-path="url(#clipPath25)" fill="none" x1="468" x2="468" y1="132" y2="170"/>
<polygon clip-path="url(#clipPath30)" points=" 468 170 465 163 471 163" stroke="none"/>
<polygon fill="none" clip-path="url(#clipPath30)" points=" 468 170 465 163 471 163"/>
<text xml:space="preserve" x="428" y="126" clip-path="url(#clipPath31)" stroke="none">reset</text>
<line clip-path="url(#clipPath25)" fill="none" x1="359" x2="393" y1="63" y2="63"/>
<line clip-path="url(#clipPath25)" fill="none" x1="393" x2="393" y1="63" y2="20"/>
<line clip-path="url(#clipPath25)" fill="none" x1="393" x2="328" y1="20" y2="20"/>
<line clip-path="url(#clipPath25)" fill="none" x1="328" x2="328" y1="20" y2="55"/>
<polygon clip-path="url(#clipPath32)" points=" 328 55 325 48 331 48" stroke="none"/>
<polygon fill="none" clip-path="url(#clipPath32)" points=" 328 55 325 48 331 48"/>
<text xml:space="preserve" x="405" y="49" clip-path="url(#clipPath33)" stroke="none">reset, switchPhase</text>
<line clip-path="url(#clipPath25)" fill="none" x1="349" x2="218" y1="473" y2="473"/>
<polygon clip-path="url(#clipPath34)" points=" 218 473 225 470 225 476" stroke="none"/>
<polygon fill="none" clip-path="url(#clipPath34)" points=" 218 473 225 470 225 476"/>
<text xml:space="preserve" x="246" y="490" clip-path="url(#clipPath35)" stroke="none">switchPhase</text>
<line clip-path="url(#clipPath25)" fill="none" x1="58" x2="99" y1="263" y2="263"/>
<polygon clip-path="url(#clipPath36)" points=" 99 263 92 266 92 260" stroke="none"/>
<polygon fill="none" clip-path="url(#clipPath36)" points=" 99 263 92 266 92 260"/>
<line clip-path="url(#clipPath25)" fill="none" x1="218" x2="349" y1="261" y2="261"/>
<polygon clip-path="url(#clipPath37)" points=" 349 261 342 264 342 258" stroke="none"/>
<polygon fill="none" clip-path="url(#clipPath37)" points=" 349 261 342 264 342 258"/>
<text xml:space="preserve" x="243" y="256" clip-path="url(#clipPath38)" stroke="none">switchPhase</text>
<line clip-path="url(#clipPath25)" fill="none" x1="134" x2="178" y1="78" y2="78"/>
<polygon clip-path="url(#clipPath39)" points=" 178 78 171 81 171 75" stroke="none"/>
<polygon fill="none" clip-path="url(#clipPath39)" points=" 178 78 171 81 171 75"/>
<line clip-path="url(#clipPath25)" fill="none" x1="408" x2="408" y1="288" y2="444"/>
<polygon clip-path="url(#clipPath40)" points=" 408 444 405 437 411 437" stroke="none"/>
<polygon fill="none" clip-path="url(#clipPath40)" points=" 408 444 405 437 411 437"/>
<text xml:space="preserve" x="419" y="363" clip-path="url(#clipPath41)" stroke="none">switchPhase /</text>
<text xml:space="preserve" x="419" y="377" clip-path="url(#clipPath41)" stroke="none">raise go</text>
<line clip-path="url(#clipPath25)" fill="none" x1="302" x2="302" y1="103" y2="170"/>
<polygon clip-path="url(#clipPath42)" points=" 302 170 299 163 305 163" stroke="none"/>
<polygon fill="none" clip-path="url(#clipPath42)" points=" 302 170 299 163 305 163"/>
<text xml:space="preserve" x="306" y="144" clip-path="url(#clipPath43)" stroke="none">onOff</text>
</g>
</g>
</svg>
