<?xml version="1.0" encoding="UTF-8"?><svg xmlns="http://www.w3.org/2000/svg" xmlns:xlink="http://www.w3.org/1999/xlink" stroke-dasharray="none" shape-rendering="auto" font-family="'Dialog'" width="1103" text-rendering="auto" fill-opacity="1" contentScriptType="text/ecmascript" color-interpolation="auto" color-rendering="auto" preserveAspectRatio="xMidYMid meet" font-size="12" viewBox="0 0 1103 732" fill="black" stroke="black" image-rendering="auto" stroke-miterlimit="10" zoomAndPan="magnify" version="1.0" stroke-linecap="square" stroke-linejoin="miter" contentStyleType="text/css" font-style="normal" height="732" stroke-width="1" stroke-dashoffset="0" font-weight="normal" stroke-opacity="1">
<!--Generated by the Batik Graphics2D SVG Generator-->
<defs id="genericDefs"/>
<g>
<defs id="defs1">
<linearGradient x1="10" x2="10" y1="10" gradientUnits="userSpaceOnUse" y2="722" xlink:type="simple" xlink:actuate="onLoad" id="linearGradient1" xlink:show="other" spreadMethod="pad">
<stop stop-opacity="1" stop-color="white" offset="0%"/>
<stop stop-opacity="1" stop-color="white" offset="100%"/>
</linearGradient>
<linearGradient x1="458" x2="458" y1="108" gradientUnits="userSpaceOnUse" y2="141" xlink:type="simple" xlink:actuate="onLoad" id="linearGradient2" xlink:show="other" spreadMethod="pad">
<stop stop-opacity="1" stop-color="white" offset="0%"/>
<stop stop-opacity="1" stop-color="white" offset="100%"/>
</linearGradient>
<linearGradient x1="21" x2="21" y1="192" gradientUnits="userSpaceOnUse" y2="698" xlink:type="simple" xlink:actuate="onLoad" id="linearGradient3" xlink:show="other" spreadMethod="pad">
<stop stop-opacity="1" stop-color="white" offset="0%"/>
<stop stop-opacity="1" stop-color="white" offset="100%"/>
</linearGradient>
<linearGradient x1="27" x2="27" y1="224" gradientUnits="userSpaceOnUse" y2="701" xlink:type="simple" xlink:actuate="onLoad" id="linearGradient4" xlink:show="other" spreadMethod="pad">
<stop stop-opacity="1" stop-color="white" offset="0%"/>
<stop stop-opacity="1" stop-color="white" offset="100%"/>
</linearGradient>
<linearGradient x1="40" x2="40" y1="259" gradientUnits="userSpaceOnUse" y2="668" xlink:type="simple" xlink:actuate="onLoad" id="linearGradient5" xlink:show="other" spreadMethod="pad">
<stop stop-opacity="1" stop-color="white" offset="0%"/>
<stop stop-opacity="1" stop-color="white" offset="100%"/>
</linearGradient>
<linearGradient x1="46" x2="46" y1="291" gradientUnits="userSpaceOnUse" y2="671" xlink:type="simple" xlink:actuate="onLoad" id="linearGradient6" xlink:show="other" spreadMethod="pad">
<stop stop-opacity="1" stop-color="white" offset="0%"/>
<stop stop-opacity="1" stop-color="white" offset="100%"/>
</linearGradient>
<linearGradient x1="75" x2="75" y1="372" gradientUnits="userSpaceOnUse" y2="405" xlink:type="simple" xlink:actuate="onLoad" id="linearGradient7" xlink:show="other" spreadMethod="pad">
<stop stop-opacity="1" stop-color="white" offset="0%"/>
<stop stop-opacity="1" stop-color="white" offset="100%"/>
</linearGradient>
<linearGradient x1="345" x2="345" y1="372" gradientUnits="userSpaceOnUse" y2="405" xlink:type="simple" xlink:actuate="onLoad" id="linearGradient8" xlink:show="other" spreadMethod="pad">
<stop stop-opacity="1" stop-color="white" offset="0%"/>
<stop stop-opacity="1" stop-color="white" offset="100%"/>
</linearGradient>
<linearGradient x1="78" x2="78" y1="559" gradientUnits="userSpaceOnUse" y2="592" xlink:type="simple" xlink:actuate="onLoad" id="linearGradient9" xlink:show="other" spreadMethod="pad">
<stop stop-opacity="1" stop-color="white" offset="0%"/>
<stop stop-opacity="1" stop-color="white" offset="100%"/>
</linearGradient>
<linearGradient x1="345" x2="345" y1="564" gradientUnits="userSpaceOnUse" y2="597" xlink:type="simple" xlink:actuate="onLoad" id="linearGradient10" xlink:show="other" spreadMethod="pad">
<stop stop-opacity="1" stop-color="white" offset="0%"/>
<stop stop-opacity="1" stop-color="white" offset="100%"/>
</linearGradient>
<linearGradient x1="610" x2="610" y1="259" gradientUnits="userSpaceOnUse" y2="673" xlink:type="simple" xlink:actuate="onLoad" id="linearGradient11" xlink:show="other" spreadMethod="pad">
<stop stop-opacity="1" stop-color="white" offset="0%"/>
<stop stop-opacity="1" stop-color="white" offset="100%"/>
</linearGradient>
<linearGradient x1="616" x2="616" y1="291" gradientUnits="userSpaceOnUse" y2="676" xlink:type="simple" xlink:actuate="onLoad" id="linearGradient12" xlink:show="other" spreadMethod="pad">
<stop stop-opacity="1" stop-color="white" offset="0%"/>
<stop stop-opacity="1" stop-color="white" offset="100%"/>
</linearGradient>
<linearGradient x1="910" x2="910" y1="467" gradientUnits="userSpaceOnUse" y2="500" xlink:type="simple" xlink:actuate="onLoad" id="linearGradient13" xlink:show="other" spreadMethod="pad">
<stop stop-opacity="1" stop-color="white" offset="0%"/>
<stop stop-opacity="1" stop-color="white" offset="100%"/>
</linearGradient>
<linearGradient x1="695" x2="695" y1="467" gradientUnits="userSpaceOnUse" y2="500" xlink:type="simple" xlink:actuate="onLoad" id="linearGradient14" xlink:show="other" spreadMethod="pad">
<stop stop-opacity="1" stop-color="white" offset="0%"/>
<stop stop-opacity="1" stop-color="white" offset="100%"/>
</linearGradient>
<clipPath clipPathUnits="userSpaceOnUse" id="clipPath1">
<path d="M9 9 L1094 9 L1094 723 L9 723 L9 9 Z"/>
</clipPath>
<clipPath clipPathUnits="userSpaceOnUse" id="clipPath2">
<path d="M16 15 L81 15 L81 31 L16 31 L16 15 Z"/>
</clipPath>
<clipPath clipPathUnits="userSpaceOnUse" id="clipPath3">
<path d="M452 95 L645 95 L645 155 L452 155 L452 95 Z"/>
</clipPath>
<clipPath clipPathUnits="userSpaceOnUse" id="clipPath4">
<path d="M457 100 L640 100 L640 150 L457 150 L457 100 Z"/>
</clipPath>
<clipPath clipPathUnits="userSpaceOnUse" id="clipPath5">
<path d="M537 106 L561 106 L561 122 L537 122 L537 106 Z"/>
</clipPath>
<clipPath clipPathUnits="userSpaceOnUse" id="clipPath6">
<path d="M414 116 L431 116 L431 133 L414 133 L414 116 Z"/>
</clipPath>
<clipPath clipPathUnits="userSpaceOnUse" id="clipPath7">
<path d="M15 179 L1083 179 L1083 712 L15 712 L15 179 Z"/>
</clipPath>
<clipPath clipPathUnits="userSpaceOnUse" id="clipPath8">
<path d="M20 184 L1078 184 L1078 707 L20 707 L20 184 Z"/>
</clipPath>
<clipPath clipPathUnits="userSpaceOnUse" id="clipPath9">
<path d="M538 190 L560 190 L560 206 L538 206 L538 190 Z"/>
</clipPath>
<clipPath clipPathUnits="userSpaceOnUse" id="clipPath10">
<path d="M26 223 L1073 223 L1073 702 L26 702 L26 223 Z"/>
</clipPath>
<clipPath clipPathUnits="userSpaceOnUse" id="clipPath11">
<path d="M33 229 L82 229 L82 245 L33 245 L33 229 Z"/>
</clipPath>
<clipPath clipPathUnits="userSpaceOnUse" id="clipPath12">
<path d="M34 246 L506 246 L506 682 L34 682 L34 246 Z"/>
</clipPath>
<clipPath clipPathUnits="userSpaceOnUse" id="clipPath13">
<path d="M39 251 L501 251 L501 677 L39 677 L39 251 Z"/>
</clipPath>
<clipPath clipPathUnits="userSpaceOnUse" id="clipPath14">
<path d="M245 257 L296 257 L296 273 L245 273 L245 257 Z"/>
</clipPath>
<clipPath clipPathUnits="userSpaceOnUse" id="clipPath15">
<path d="M45 290 L496 290 L496 672 L45 672 L45 290 Z"/>
</clipPath>
<clipPath clipPathUnits="userSpaceOnUse" id="clipPath16">
<path d="M52 296 L93 296 L93 312 L52 312 L52 296 Z"/>
</clipPath>
<clipPath clipPathUnits="userSpaceOnUse" id="clipPath17">
<path d="M85 324 L102 324 L102 341 L85 341 L85 324 Z"/>
</clipPath>
<clipPath clipPathUnits="userSpaceOnUse" id="clipPath18">
<path d="M69 359 L200 359 L200 419 L69 419 L69 359 Z"/>
</clipPath>
<clipPath clipPathUnits="userSpaceOnUse" id="clipPath19">
<path d="M74 364 L195 364 L195 414 L74 414 L74 364 Z"/>
</clipPath>
<clipPath clipPathUnits="userSpaceOnUse" id="clipPath20">
<path d="M118 370 L151 370 L151 386 L118 386 L118 370 Z"/>
</clipPath>
<clipPath clipPathUnits="userSpaceOnUse" id="clipPath21">
<path d="M339 359 L470 359 L470 419 L339 419 L339 359 Z"/>
</clipPath>
<clipPath clipPathUnits="userSpaceOnUse" id="clipPath22">
<path d="M344 364 L465 364 L465 414 L344 414 L344 364 Z"/>
</clipPath>
<clipPath clipPathUnits="userSpaceOnUse" id="clipPath23">
<path d="M377 370 L432 370 L432 386 L377 386 L377 370 Z"/>
</clipPath>
<clipPath clipPathUnits="userSpaceOnUse" id="clipPath24">
<path d="M72 546 L197 546 L197 606 L72 606 L72 546 Z"/>
</clipPath>
<clipPath clipPathUnits="userSpaceOnUse" id="clipPath25">
<path d="M77 551 L192 551 L192 601 L77 601 L77 551 Z"/>
</clipPath>
<clipPath clipPathUnits="userSpaceOnUse" id="clipPath26">
<path d="M105 557 L165 557 L165 573 L105 573 L105 557 Z"/>
</clipPath>
<clipPath clipPathUnits="userSpaceOnUse" id="clipPath27">
<path d="M339 551 L470 551 L470 611 L339 611 L339 551 Z"/>
</clipPath>
<clipPath clipPathUnits="userSpaceOnUse" id="clipPath28">
<path d="M344 556 L465 556 L465 606 L344 606 L344 556 Z"/>
</clipPath>
<clipPath clipPathUnits="userSpaceOnUse" id="clipPath29">
<path d="M394 562 L415 562 L415 578 L394 578 L394 562 Z"/>
</clipPath>
<clipPath clipPathUnits="userSpaceOnUse" id="clipPath30">
<path d="M539 281 L556 281 L556 298 L539 298 L539 281 Z"/>
</clipPath>
<clipPath clipPathUnits="userSpaceOnUse" id="clipPath31">
<path d="M604 246 L1062 246 L1062 687 L604 687 L604 246 Z"/>
</clipPath>
<clipPath clipPathUnits="userSpaceOnUse" id="clipPath32">
<path d="M609 251 L1057 251 L1057 682 L609 682 L609 251 Z"/>
</clipPath>
<clipPath clipPathUnits="userSpaceOnUse" id="clipPath33">
<path d="M816 257 L851 257 L851 273 L816 273 L816 257 Z"/>
</clipPath>
<clipPath clipPathUnits="userSpaceOnUse" id="clipPath34">
<path d="M622 274 L743 274 L743 290 L622 290 L622 274 Z"/>
</clipPath>
<clipPath clipPathUnits="userSpaceOnUse" id="clipPath35">
<path d="M615 290 L1052 290 L1052 677 L615 677 L615 290 Z"/>
</clipPath>
<clipPath clipPathUnits="userSpaceOnUse" id="clipPath36">
<path d="M622 296 L672 296 L672 312 L622 312 L622 296 Z"/>
</clipPath>
<clipPath clipPathUnits="userSpaceOnUse" id="clipPath37">
<path d="M904 454 L984 454 L984 514 L904 514 L904 454 Z"/>
</clipPath>
<clipPath clipPathUnits="userSpaceOnUse" id="clipPath38">
<path d="M909 459 L979 459 L979 509 L909 509 L909 459 Z"/>
</clipPath>
<clipPath clipPathUnits="userSpaceOnUse" id="clipPath39">
<path d="M916 465 L973 465 L973 481 L916 481 L916 465 Z"/>
</clipPath>
<clipPath clipPathUnits="userSpaceOnUse" id="clipPath40">
<path d="M689 454 L769 454 L769 514 L689 514 L689 454 Z"/>
</clipPath>
<clipPath clipPathUnits="userSpaceOnUse" id="clipPath41">
<path d="M694 459 L764 459 L764 509 L694 509 L694 459 Z"/>
</clipPath>
<clipPath clipPathUnits="userSpaceOnUse" id="clipPath42">
<path d="M702 465 L757 465 L757 481 L702 481 L702 465 Z"/>
</clipPath>
<clipPath clipPathUnits="userSpaceOnUse" id="clipPath43">
<path d="M714 389 L731 389 L731 406 L714 406 L714 389 Z"/>
</clipPath>
<clipPath clipPathUnits="userSpaceOnUse" id="clipPath44">
<path d="M-1 -1 L1104 -1 L1104 733 L-1 733 L-1 -1 Z"/>
</clipPath>
<clipPath clipPathUnits="userSpaceOnUse" id="clipPath45">
<path d="M718 452 L727 452 L727 462 L718 462 L718 452 Z"/>
</clipPath>
<clipPath clipPathUnits="userSpaceOnUse" id="clipPath46">
<path d="M604 93 L613 93 L613 103 L604 103 L604 93 Z"/>
</clipPath>
<clipPath clipPathUnits="userSpaceOnUse" id="clipPath47">
<path d="M678 75 L911 75 L911 91 L678 91 L678 75 Z"/>
</clipPath>
<clipPath clipPathUnits="userSpaceOnUse" id="clipPath48">
<path d="M731 452 L740 452 L740 462 L731 462 L731 452 Z"/>
</clipPath>
<clipPath clipPathUnits="userSpaceOnUse" id="clipPath49">
<path d="M738 430 L943 430 L943 446 L738 446 L738 430 Z"/>
</clipPath>
<clipPath clipPathUnits="userSpaceOnUse" id="clipPath50">
<path d="M89 357 L98 357 L98 367 L89 367 L89 357 Z"/>
</clipPath>
<clipPath clipPathUnits="userSpaceOnUse" id="clipPath51">
<path d="M450 120 L460 120 L460 129 L450 129 L450 120 Z"/>
</clipPath>
<clipPath clipPathUnits="userSpaceOnUse" id="clipPath52">
<path d="M960 452 L969 452 L969 462 L960 462 L960 452 Z"/>
</clipPath>
<clipPath clipPathUnits="userSpaceOnUse" id="clipPath53">
<path d="M825 400 L1030 400 L1030 416 L825 416 L825 400 Z"/>
</clipPath>
<clipPath clipPathUnits="userSpaceOnUse" id="clipPath54">
<path d="M400 549 L409 549 L409 559 L400 559 L400 549 Z"/>
</clipPath>
<clipPath clipPathUnits="userSpaceOnUse" id="clipPath55">
<path d="M310 467 L401 467 L401 497 L310 497 L310 467 Z"/>
</clipPath>
<clipPath clipPathUnits="userSpaceOnUse" id="clipPath56">
<path d="M386 604 L395 604 L395 614 L386 614 L386 604 Z"/>
</clipPath>
<clipPath clipPathUnits="userSpaceOnUse" id="clipPath57">
<path d="M393 627 L417 627 L417 643 L393 643 L393 627 Z"/>
</clipPath>
<clipPath clipPathUnits="userSpaceOnUse" id="clipPath58">
<path d="M704 507 L713 507 L713 517 L704 517 L704 507 Z"/>
</clipPath>
<clipPath clipPathUnits="userSpaceOnUse" id="clipPath59">
<path d="M640 555 L845 555 L845 571 L640 571 L640 555 Z"/>
</clipPath>
<clipPath clipPathUnits="userSpaceOnUse" id="clipPath60">
<path d="M415 357 L424 357 L424 367 L415 367 L415 357 Z"/>
</clipPath>
<clipPath clipPathUnits="userSpaceOnUse" id="clipPath61">
<path d="M393 327 L417 327 L417 343 L393 343 L393 327 Z"/>
</clipPath>
<clipPath clipPathUnits="userSpaceOnUse" id="clipPath62">
<path d="M828 177 L837 177 L837 187 L828 187 L828 177 Z"/>
</clipPath>
<clipPath clipPathUnits="userSpaceOnUse" id="clipPath63">
<path d="M784 133 L819 133 L819 149 L784 149 L784 133 Z"/>
</clipPath>
<clipPath clipPathUnits="userSpaceOnUse" id="clipPath64">
<path d="M700 452 L709 452 L709 462 L700 462 L700 452 Z"/>
</clipPath>
<clipPath clipPathUnits="userSpaceOnUse" id="clipPath65">
<path d="M635 404 L716 404 L716 420 L635 420 L635 404 Z"/>
</clipPath>
<clipPath clipPathUnits="userSpaceOnUse" id="clipPath66">
<path d="M149 357 L158 357 L158 367 L149 367 L149 357 Z"/>
</clipPath>
<clipPath clipPathUnits="userSpaceOnUse" id="clipPath67">
<path d="M128 327 L152 327 L152 343 L128 343 L128 327 Z"/>
</clipPath>
<clipPath clipPathUnits="userSpaceOnUse" id="clipPath68">
<path d="M337 389 L347 389 L347 398 L337 398 L337 389 Z"/>
</clipPath>
<clipPath clipPathUnits="userSpaceOnUse" id="clipPath69">
<path d="M228 369 L309 369 L309 385 L228 385 L228 369 Z"/>
</clipPath>
<clipPath clipPathUnits="userSpaceOnUse" id="clipPath70">
<path d="M961 507 L970 507 L970 517 L961 517 L961 507 Z"/>
</clipPath>
<clipPath clipPathUnits="userSpaceOnUse" id="clipPath71">
<path d="M960 550 L1041 550 L1041 566 L960 566 L960 550 Z"/>
</clipPath>
<clipPath clipPathUnits="userSpaceOnUse" id="clipPath72">
<path d="M941 507 L950 507 L950 517 L941 517 L941 507 Z"/>
</clipPath>
<clipPath clipPathUnits="userSpaceOnUse" id="clipPath73">
<path d="M738 525 L943 525 L943 541 L738 541 L738 525 Z"/>
</clipPath>
<clipPath clipPathUnits="userSpaceOnUse" id="clipPath74">
<path d="M190 570 L200 570 L200 579 L190 579 L190 570 Z"/>
</clipPath>
<clipPath clipPathUnits="userSpaceOnUse" id="clipPath75">
<path d="M230 577 L311 577 L311 593 L230 593 L230 577 Z"/>
</clipPath>
<clipPath clipPathUnits="userSpaceOnUse" id="clipPath76">
<path d="M130 412 L139 412 L139 422 L130 422 L130 412 Z"/>
</clipPath>
<clipPath clipPathUnits="userSpaceOnUse" id="clipPath77">
<path d="M140 464 L231 464 L231 494 L140 494 L140 464 Z"/>
</clipPath>
<clipPath clipPathUnits="userSpaceOnUse" id="clipPath78">
<path d="M581 177 L590 177 L590 187 L581 187 L581 177 Z"/>
</clipPath>
<clipPath clipPathUnits="userSpaceOnUse" id="clipPath79">
<path d="M589 158 L626 158 L626 174 L589 174 L589 158 Z"/>
</clipPath>
<clipPath clipPathUnits="userSpaceOnUse" id="clipPath80">
<path d="M499 285 L509 285 L509 294 L499 294 L499 285 Z"/>
</clipPath>
<clipPath clipPathUnits="userSpaceOnUse" id="clipPath81">
<path d="M503 148 L512 148 L512 158 L503 158 L503 148 Z"/>
</clipPath>
<clipPath clipPathUnits="userSpaceOnUse" id="clipPath82">
<path d="M464 158 L501 158 L501 174 L464 174 L464 158 Z"/>
</clipPath>
<clipPath clipPathUnits="userSpaceOnUse" id="clipPath83">
<path d="M602 403 L612 403 L612 412 L602 412 L602 403 Z"/>
</clipPath>
<clipPath clipPathUnits="userSpaceOnUse" id="clipPath84">
<path d="M516 375 L602 375 L602 405 L516 405 L516 375 Z"/>
</clipPath>
<clipPath clipPathUnits="userSpaceOnUse" id="clipPath85">
<path d="M111 599 L120 599 L120 609 L111 609 L111 599 Z"/>
</clipPath>
<clipPath clipPathUnits="userSpaceOnUse" id="clipPath86">
<path d="M120 627 L144 627 L144 643 L120 643 L120 627 Z"/>
</clipPath>
<clipPath clipPathUnits="userSpaceOnUse" id="clipPath87">
<path d="M499 537 L509 537 L509 546 L499 546 L499 537 Z"/>
</clipPath>
<clipPath clipPathUnits="userSpaceOnUse" id="clipPath88">
<path d="M517 547 L593 547 L593 563 L517 563 L517 547 Z"/>
</clipPath>
</defs>
<g fill="url(#linearGradient1)" font-family="'Verdana'" stroke-linejoin="round" stroke="url(#linearGradient1)" stroke-width="0" stroke-miterlimit="0">
<rect x="10" y="10" clip-path="url(#clipPath1)" width="1083" height="712" stroke="none"/>
</g>
<g stroke-width="1.1" font-family="'Verdana'" stroke-linecap="butt">
<rect x="10" y="10" clip-path="url(#clipPath1)" fill="none" width="1082" height="711"/>
<text xml:space="preserve" x="17" y="29" clip-path="url(#clipPath2)" stroke="none">Operation</text>
<rect x="463" y="106" clip-path="url(#clipPath3)" fill="none" width="180" rx="7.5" opacity="0.0784" ry="7.5" height="47" stroke="gray" stroke-width="2.1"/>
<rect x="462" y="105" clip-path="url(#clipPath3)" fill="none" width="180" rx="7.5" opacity="0.1176" ry="7.5" height="47" stroke="gray" stroke-width="2.1"/>
<rect x="461" y="104" clip-path="url(#clipPath3)" fill="none" width="180" rx="7.5" opacity="0.2353" ry="7.5" height="47" stroke="gray" stroke-width="2.1"/>
<rect x="460" y="103" clip-path="url(#clipPath3)" fill="none" width="180" rx="7.5" opacity="0.3922" ry="7.5" height="47" stroke="gray" stroke-width="2.1"/>
<rect x="459" y="102" clip-path="url(#clipPath3)" fill="none" width="180" rx="7.5" opacity="0.5882" ry="7.5" height="47" stroke="gray" stroke-width="2.1"/>
<rect x="458" y="108" clip-path="url(#clipPath4)" fill="url(#linearGradient2)" width="181" height="33" stroke="none" stroke-width="2.1"/>
<path clip-path="url(#clipPath4)" fill="white" fill-rule="evenodd" d="M458 140.5 C458 144.6421 461.3578 148 465.5 148 L630.5 148 C634.6421 148 637.9999 144.6421 637.9999 140.5" stroke="none" stroke-width="2.1"/>
<path clip-path="url(#clipPath4)" fill="white" fill-rule="evenodd" d="M637.9999 108.5 C637.9999 104.3579 634.6421 101 630.4999 101 C630.4999 101 630.4999 101 630.4999 101 L465.5 101 C461.3578 101 458 104.3579 458 108.5" stroke="none" stroke-width="2.1"/>
<rect x="458" y="101" clip-path="url(#clipPath4)" fill="none" width="180" rx="7.5" ry="7.5" height="47"/>
<text x="538" y="120" clip-path="url(#clipPath5)" stroke="none" font-weight="bold" xml:space="preserve">Off</text>
<circle r="6.5" clip-path="url(#clipPath6)" cx="421.5" cy="123.5" stroke="none"/>
<rect x="26" y="190" clip-path="url(#clipPath7)" fill="none" width="1055" rx="7.5" opacity="0.0784" ry="7.5" height="520" stroke="gray" stroke-width="2.1"/>
<rect x="25" y="189" clip-path="url(#clipPath7)" fill="none" width="1055" rx="7.5" opacity="0.1176" ry="7.5" height="520" stroke="gray" stroke-width="2.1"/>
<rect x="24" y="188" clip-path="url(#clipPath7)" fill="none" width="1055" rx="7.5" opacity="0.2353" ry="7.5" height="520" stroke="gray" stroke-width="2.1"/>
<rect x="23" y="187" clip-path="url(#clipPath7)" fill="none" width="1055" rx="7.5" opacity="0.3922" ry="7.5" height="520" stroke="gray" stroke-width="2.1"/>
<rect x="22" y="186" clip-path="url(#clipPath7)" fill="none" width="1055" rx="7.5" opacity="0.5882" ry="7.5" height="520" stroke="gray" stroke-width="2.1"/>
<rect x="21" y="192" clip-path="url(#clipPath8)" fill="url(#linearGradient3)" width="1056" height="506" stroke="none" stroke-width="2.1"/>
<path clip-path="url(#clipPath8)" fill="white" fill-rule="evenodd" d="M21 697.5 C21 701.6421 24.3579 705 28.5 704.9999 L1068.5 704.9999 C1072.6421 704.9999 1075.9999 701.6421 1075.9999 697.4999" stroke="none" stroke-width="2.1"/>
<path clip-path="url(#clipPath8)" fill="white" fill-rule="evenodd" d="M1075.9999 192.5 C1075.9999 188.3578 1072.6421 185 1068.4999 185 C1068.4999 185 1068.4999 185 1068.4999 185 L28.5 185 C24.3579 185 21 188.3579 21 192.5" stroke="none" stroke-width="2.1"/>
<rect x="21" y="185" clip-path="url(#clipPath8)" fill="none" width="1055" rx="7.5" ry="7.5" height="520"/>
<text x="539" y="204" clip-path="url(#clipPath9)" stroke="none" font-weight="bold" xml:space="preserve">On</text>
<rect x="27" y="224" clip-path="url(#clipPath10)" fill="url(#linearGradient4)" width="1045" height="477" stroke="none"/>
<rect x="27" y="224" clip-path="url(#clipPath10)" fill="none" width="1044" height="476"/>
<text xml:space="preserve" x="34" y="243" clip-path="url(#clipPath11)" stroke="none">Control</text>
<rect x="45" y="257" clip-path="url(#clipPath12)" fill="none" width="459" rx="7.5" opacity="0.0784" ry="7.5" height="423" stroke="gray" stroke-width="2.1"/>
<rect x="44" y="256" clip-path="url(#clipPath12)" fill="none" width="459" rx="7.5" opacity="0.1176" ry="7.5" height="423" stroke="gray" stroke-width="2.1"/>
<rect x="43" y="255" clip-path="url(#clipPath12)" fill="none" width="459" rx="7.5" opacity="0.2353" ry="7.5" height="423" stroke="gray" stroke-width="2.1"/>
<rect x="42" y="254" clip-path="url(#clipPath12)" fill="none" width="459" rx="7.5" opacity="0.3922" ry="7.5" height="423" stroke="gray" stroke-width="2.1"/>
<rect x="41" y="253" clip-path="url(#clipPath12)" fill="none" width="459" rx="7.5" opacity="0.5882" ry="7.5" height="423" stroke="gray" stroke-width="2.1"/>
<rect x="40" y="259" clip-path="url(#clipPath13)" fill="url(#linearGradient5)" width="460" height="409" stroke="none" stroke-width="2.1"/>
<path clip-path="url(#clipPath13)" fill="white" fill-rule="evenodd" d="M40 667.5 C40 671.6421 43.3579 675 47.5 675 L491.5 675 C495.6421 675 499 671.6421 499 667.5" stroke="none" stroke-width="2.1"/>
<path clip-path="url(#clipPath13)" fill="white" fill-rule="evenodd" d="M499 259.5 C499 255.3579 495.6421 252 491.5 252 C491.5 252 491.5 252 491.5 252 L47.5 252 C43.3579 252 40 255.3579 40 259.5" stroke="none" stroke-width="2.1"/>
<rect x="40" y="252" clip-path="url(#clipPath13)" fill="none" width="459" rx="7.5" ry="7.5" height="423"/>
<text x="246" y="271" clip-path="url(#clipPath14)" stroke="none" font-weight="bold" xml:space="preserve">Normal</text>
<rect x="46" y="291" clip-path="url(#clipPath15)" fill="url(#linearGradient6)" width="449" height="380" stroke="none"/>
<rect x="46" y="291" clip-path="url(#clipPath15)" fill="none" width="448" height="379"/>
<text xml:space="preserve" x="53" y="310" clip-path="url(#clipPath16)" stroke="none">Phase</text>
<circle r="6.5" clip-path="url(#clipPath17)" cx="92.5" cy="331.5" stroke="none"/>
<rect x="80" y="370" clip-path="url(#clipPath18)" fill="none" width="118" rx="7.5" opacity="0.0784" ry="7.5" height="47" stroke="gray" stroke-width="2.1"/>
<rect x="79" y="369" clip-path="url(#clipPath18)" fill="none" width="118" rx="7.5" opacity="0.1176" ry="7.5" height="47" stroke="gray" stroke-width="2.1"/>
<rect x="78" y="368" clip-path="url(#clipPath18)" fill="none" width="118" rx="7.5" opacity="0.2353" ry="7.5" height="47" stroke="gray" stroke-width="2.1"/>
<rect x="77" y="367" clip-path="url(#clipPath18)" fill="none" width="118" rx="7.5" opacity="0.3922" ry="7.5" height="47" stroke="gray" stroke-width="2.1"/>
<rect x="76" y="366" clip-path="url(#clipPath18)" fill="none" width="118" rx="7.5" opacity="0.5882" ry="7.5" height="47" stroke="gray" stroke-width="2.1"/>
<rect x="75" y="372" clip-path="url(#clipPath19)" fill="url(#linearGradient7)" width="119" height="33" stroke="none" stroke-width="2.1"/>
<path clip-path="url(#clipPath19)" fill="white" fill-rule="evenodd" d="M75 404.5 C75 408.6422 78.3579 412 82.5 412 L185.5 412 C189.6421 412 193 408.6421 193 404.5" stroke="none" stroke-width="2.1"/>
<path clip-path="url(#clipPath19)" fill="white" fill-rule="evenodd" d="M193 372.5 C193 368.3578 189.6421 365 185.5 365 C185.5 365 185.5 365 185.5 365 L82.5 365 C78.3579 365 75 368.3579 75 372.5" stroke="none" stroke-width="2.1"/>
<rect x="75" y="365" clip-path="url(#clipPath19)" fill="none" width="118" rx="7.5" ry="7.5" height="47"/>
<text x="119" y="384" clip-path="url(#clipPath20)" stroke="none" font-weight="bold" xml:space="preserve">Stop</text>
<rect x="350" y="370" clip-path="url(#clipPath21)" fill="none" width="118" rx="7.5" opacity="0.0784" ry="7.5" height="47" stroke="gray" stroke-width="2.1"/>
<rect x="349" y="369" clip-path="url(#clipPath21)" fill="none" width="118" rx="7.5" opacity="0.1176" ry="7.5" height="47" stroke="gray" stroke-width="2.1"/>
<rect x="348" y="368" clip-path="url(#clipPath21)" fill="none" width="118" rx="7.5" opacity="0.2353" ry="7.5" height="47" stroke="gray" stroke-width="2.1"/>
<rect x="347" y="367" clip-path="url(#clipPath21)" fill="none" width="118" rx="7.5" opacity="0.3922" ry="7.5" height="47" stroke="gray" stroke-width="2.1"/>
<rect x="346" y="366" clip-path="url(#clipPath21)" fill="none" width="118" rx="7.5" opacity="0.5882" ry="7.5" height="47" stroke="gray" stroke-width="2.1"/>
<rect x="345" y="372" clip-path="url(#clipPath22)" fill="url(#linearGradient8)" width="119" height="33" stroke="none" stroke-width="2.1"/>
<path clip-path="url(#clipPath22)" fill="white" fill-rule="evenodd" d="M345 404.5 C345 408.6422 348.3578 412 352.5 412 L455.5 412 C459.6421 412 463 408.6421 463 404.5" stroke="none" stroke-width="2.1"/>
<path clip-path="url(#clipPath22)" fill="white" fill-rule="evenodd" d="M463 372.5 C463 368.3578 459.6421 365 455.5 365 C455.5 365 455.5 365 455.5 365 L352.5 365 C348.3578 365 345 368.3579 345 372.5" stroke="none" stroke-width="2.1"/>
<rect x="345" y="365" clip-path="url(#clipPath22)" fill="none" width="118" rx="7.5" ry="7.5" height="47"/>
<text x="378" y="384" clip-path="url(#clipPath23)" stroke="none" font-weight="bold" xml:space="preserve">Prepare</text>
<rect x="83" y="557" clip-path="url(#clipPath24)" fill="none" width="112" rx="7.5" opacity="0.0784" ry="7.5" height="47" stroke="gray" stroke-width="2.1"/>
<rect x="82" y="556" clip-path="url(#clipPath24)" fill="none" width="112" rx="7.5" opacity="0.1176" ry="7.5" height="47" stroke="gray" stroke-width="2.1"/>
<rect x="81" y="555" clip-path="url(#clipPath24)" fill="none" width="112" rx="7.5" opacity="0.2353" ry="7.5" height="47" stroke="gray" stroke-width="2.1"/>
<rect x="80" y="554" clip-path="url(#clipPath24)" fill="none" width="112" rx="7.5" opacity="0.3922" ry="7.5" height="47" stroke="gray" stroke-width="2.1"/>
<rect x="79" y="553" clip-path="url(#clipPath24)" fill="none" width="112" rx="7.5" opacity="0.5882" ry="7.5" height="47" stroke="gray" stroke-width="2.1"/>
<rect x="78" y="559" clip-path="url(#clipPath25)" fill="url(#linearGradient9)" width="113" height="33" stroke="none" stroke-width="2.1"/>
<path clip-path="url(#clipPath25)" fill="white" fill-rule="evenodd" d="M78 591.5 C78 595.6421 81.3579 599 85.5 599 L182.5 599 C186.6421 599 190 595.6421 190 591.5" stroke="none" stroke-width="2.1"/>
<path clip-path="url(#clipPath25)" fill="white" fill-rule="evenodd" d="M190 559.5 C190 555.3578 186.6421 552 182.5 552 C182.5 552 182.5 552 182.5 552 L85.5 552 C81.3579 552 78 555.3578 78 559.5" stroke="none" stroke-width="2.1"/>
<rect x="78" y="552" clip-path="url(#clipPath25)" fill="none" width="112" rx="7.5" ry="7.5" height="47"/>
<text x="106" y="571" clip-path="url(#clipPath26)" stroke="none" font-weight="bold" xml:space="preserve">Continue</text>
<rect x="350" y="562" clip-path="url(#clipPath27)" fill="none" width="118" rx="7.5" opacity="0.0784" ry="7.5" height="47" stroke="gray" stroke-width="2.1"/>
<rect x="349" y="561" clip-path="url(#clipPath27)" fill="none" width="118" rx="7.5" opacity="0.1176" ry="7.5" height="47" stroke="gray" stroke-width="2.1"/>
<rect x="348" y="560" clip-path="url(#clipPath27)" fill="none" width="118" rx="7.5" opacity="0.2353" ry="7.5" height="47" stroke="gray" stroke-width="2.1"/>
<rect x="347" y="559" clip-path="url(#clipPath27)" fill="none" width="118" rx="7.5" opacity="0.3922" ry="7.5" height="47" stroke="gray" stroke-width="2.1"/>
<rect x="346" y="558" clip-path="url(#clipPath27)" fill="none" width="118" rx="7.5" opacity="0.5882" ry="7.5" height="47" stroke="gray" stroke-width="2.1"/>
<rect x="345" y="564" clip-path="url(#clipPath28)" fill="url(#linearGradient10)" width="119" height="33" stroke="none" stroke-width="2.1"/>
<path clip-path="url(#clipPath28)" fill="white" fill-rule="evenodd" d="M345 596.5 C345 600.6421 348.3578 604 352.5 604 L455.5 604 C459.6421 604 463 600.6421 463 596.5" stroke="none" stroke-width="2.1"/>
<path clip-path="url(#clipPath28)" fill="white" fill-rule="evenodd" d="M463 564.5 C463 560.3578 459.6421 557 455.5 557 C455.5 557 455.5 557 455.5 557 L352.5 557 C348.3578 557 345 560.3578 345 564.5" stroke="none" stroke-width="2.1"/>
<rect x="345" y="557" clip-path="url(#clipPath28)" fill="none" width="118" rx="7.5" ry="7.5" height="47"/>
<text x="395" y="576" clip-path="url(#clipPath29)" stroke="none" font-weight="bold" xml:space="preserve">Go</text>
<circle r="6.5" clip-path="url(#clipPath30)" cx="546.5" cy="288.5" stroke="none"/>
<rect x="615" y="257" clip-path="url(#clipPath31)" fill="none" width="445" rx="7.5" opacity="0.0784" ry="7.5" height="428" stroke="gray" stroke-width="2.1"/>
<rect x="614" y="256" clip-path="url(#clipPath31)" fill="none" width="445" rx="7.5" opacity="0.1176" ry="7.5" height="428" stroke="gray" stroke-width="2.1"/>
<rect x="613" y="255" clip-path="url(#clipPath31)" fill="none" width="445" rx="7.5" opacity="0.2353" ry="7.5" height="428" stroke="gray" stroke-width="2.1"/>
<rect x="612" y="254" clip-path="url(#clipPath31)" fill="none" width="445" rx="7.5" opacity="0.3922" ry="7.5" height="428" stroke="gray" stroke-width="2.1"/>
<rect x="611" y="253" clip-path="url(#clipPath31)" fill="none" width="445" rx="7.5" opacity="0.5882" ry="7.5" height="428" stroke="gray" stroke-width="2.1"/>
<rect x="610" y="259" clip-path="url(#clipPath32)" fill="url(#linearGradient11)" width="446" height="414" stroke="none" stroke-width="2.1"/>
<path clip-path="url(#clipPath32)" fill="white" fill-rule="evenodd" d="M610 672.5 C610 676.6421 613.3578 680 617.5 680 L1047.5 680 C1051.6421 680 1055 676.6421 1055 672.5" stroke="none" stroke-width="2.1"/>
<path clip-path="url(#clipPath32)" fill="white" fill-rule="evenodd" d="M1055 259.5 C1055 255.3579 1051.6421 252 1047.5 252 C1047.5 252 1047.5 252 1047.5 252 L617.4999 252 C613.3578 252 609.9999 255.3579 609.9999 259.5" stroke="none" stroke-width="2.1"/>
<rect x="610" y="252" clip-path="url(#clipPath32)" fill="none" width="445" rx="7.5" ry="7.5" height="428"/>
<text x="817" y="271" clip-path="url(#clipPath33)" stroke="none" font-weight="bold" xml:space="preserve">Alert</text>
<text xml:space="preserve" x="623" y="288" clip-path="url(#clipPath34)" stroke="none">entry / counter = 0</text>
<rect x="616" y="291" clip-path="url(#clipPath35)" fill="url(#linearGradient12)" width="435" height="385" stroke="none"/>
<rect x="616" y="291" clip-path="url(#clipPath35)" fill="none" width="434" height="384"/>
<text xml:space="preserve" x="623" y="310" clip-path="url(#clipPath36)" stroke="none">Blinking</text>
<rect x="915" y="465" clip-path="url(#clipPath37)" fill="none" width="67" rx="7.5" opacity="0.0784" ry="7.5" height="47" stroke="gray" stroke-width="2.1"/>
<rect x="914" y="464" clip-path="url(#clipPath37)" fill="none" width="67" rx="7.5" opacity="0.1176" ry="7.5" height="47" stroke="gray" stroke-width="2.1"/>
<rect x="913" y="463" clip-path="url(#clipPath37)" fill="none" width="67" rx="7.5" opacity="0.2353" ry="7.5" height="47" stroke="gray" stroke-width="2.1"/>
<rect x="912" y="462" clip-path="url(#clipPath37)" fill="none" width="67" rx="7.5" opacity="0.3922" ry="7.5" height="47" stroke="gray" stroke-width="2.1"/>
<rect x="911" y="461" clip-path="url(#clipPath37)" fill="none" width="67" rx="7.5" opacity="0.5882" ry="7.5" height="47" stroke="gray" stroke-width="2.1"/>
<rect x="910" y="467" clip-path="url(#clipPath38)" fill="url(#linearGradient13)" width="68" height="33" stroke="none" stroke-width="2.1"/>
<path clip-path="url(#clipPath38)" fill="white" fill-rule="evenodd" d="M910 499.5 C910 503.6422 913.3578 507 917.5 507 L969.5 507 C973.6421 507 977 503.6421 977 499.5" stroke="none" stroke-width="2.1"/>
<path clip-path="url(#clipPath38)" fill="white" fill-rule="evenodd" d="M977 467.5 C977 463.3578 973.6421 460 969.5 460 C969.5 460 969.5 460 969.5 460 L917.5 460 C913.3578 460 910 463.3578 910 467.5" stroke="none" stroke-width="2.1"/>
<rect x="910" y="460" clip-path="url(#clipPath38)" fill="none" width="67" rx="7.5" ry="7.5" height="47"/>
<text x="917" y="479" clip-path="url(#clipPath39)" stroke="none" font-weight="bold" xml:space="preserve">LightOff</text>
<rect x="700" y="465" clip-path="url(#clipPath40)" fill="none" width="67" rx="7.5" opacity="0.0784" ry="7.5" height="47" stroke="gray" stroke-width="2.1"/>
<rect x="699" y="464" clip-path="url(#clipPath40)" fill="none" width="67" rx="7.5" opacity="0.1176" ry="7.5" height="47" stroke="gray" stroke-width="2.1"/>
<rect x="698" y="463" clip-path="url(#clipPath40)" fill="none" width="67" rx="7.5" opacity="0.2353" ry="7.5" height="47" stroke="gray" stroke-width="2.1"/>
<rect x="697" y="462" clip-path="url(#clipPath40)" fill="none" width="67" rx="7.5" opacity="0.3922" ry="7.5" height="47" stroke="gray" stroke-width="2.1"/>
<rect x="696" y="461" clip-path="url(#clipPath40)" fill="none" width="67" rx="7.5" opacity="0.5882" ry="7.5" height="47" stroke="gray" stroke-width="2.1"/>
<rect x="695" y="467" clip-path="url(#clipPath41)" fill="url(#linearGradient14)" width="68" height="33" stroke="none" stroke-width="2.1"/>
<path clip-path="url(#clipPath41)" fill="white" fill-rule="evenodd" d="M695 499.5 C695 503.6422 698.3578 507 702.5 507 L754.5 507 C758.6422 507 762 503.6421 762 499.5" stroke="none" stroke-width="2.1"/>
<path clip-path="url(#clipPath41)" fill="white" fill-rule="evenodd" d="M762 467.5 C762 463.3578 758.6421 460 754.5 460 C754.5 460 754.5 460 754.5 460 L702.5 460 C698.3578 460 695 463.3578 695 467.5" stroke="none" stroke-width="2.1"/>
<rect x="695" y="460" clip-path="url(#clipPath41)" fill="none" width="67" rx="7.5" ry="7.5" height="47"/>
<text x="703" y="479" clip-path="url(#clipPath42)" stroke="none" font-weight="bold" xml:space="preserve">LightOn</text>
<circle r="6.5" clip-path="url(#clipPath43)" cx="721.5" cy="396.5" stroke="none"/>
<line clip-path="url(#clipPath44)" fill="none" x1="722" x2="722" y1="404" y2="460"/>
<polygon clip-path="url(#clipPath45)" points=" 722 460 719 453 725 453" stroke="none"/>
<polygon fill="none" clip-path="url(#clipPath45)" points=" 722 460 719 453 725 453"/>
<line clip-path="url(#clipPath44)" fill="none" x1="639" x2="673" y1="109" y2="109"/>
<line clip-path="url(#clipPath44)" fill="none" x1="673" x2="673" y1="109" y2="66"/>
<line clip-path="url(#clipPath44)" fill="none" x1="673" x2="608" y1="66" y2="66"/>
<line clip-path="url(#clipPath44)" fill="none" x1="608" x2="608" y1="66" y2="101"/>
<polygon clip-path="url(#clipPath46)" points=" 608 101 605 94 611 94" stroke="none"/>
<polygon fill="none" clip-path="url(#clipPath46)" points=" 608 101 605 94 611 94"/>
<text xml:space="preserve" x="679" y="89" clip-path="url(#clipPath47)" stroke="none">tick, reset, switchPhase, switchMode</text>
<line clip-path="url(#clipPath44)" fill="none" x1="945" x2="945" y1="460" y2="424"/>
<line clip-path="url(#clipPath44)" fill="none" x1="945" x2="735" y1="424" y2="424"/>
<line clip-path="url(#clipPath44)" fill="none" x1="735" x2="735" y1="424" y2="460"/>
<polygon clip-path="url(#clipPath48)" points=" 735 460 732 453 738 453" stroke="none"/>
<polygon fill="none" clip-path="url(#clipPath48)" points=" 735 460 732 453 738 453"/>
<text xml:space="preserve" x="739" y="444" clip-path="url(#clipPath49)" stroke="none">tick [counter &gt;= 3] / counter = 0</text>
<line clip-path="url(#clipPath44)" fill="none" x1="93" x2="93" y1="339" y2="365"/>
<polygon clip-path="url(#clipPath50)" points=" 93 365 90 358 96 358" stroke="none"/>
<polygon fill="none" clip-path="url(#clipPath50)" points=" 93 365 90 358 96 358"/>
<line clip-path="url(#clipPath44)" fill="none" x1="429" x2="458" y1="124" y2="124"/>
<polygon clip-path="url(#clipPath51)" points=" 458 124 451 127 451 121" stroke="none"/>
<polygon fill="none" clip-path="url(#clipPath51)" points=" 458 124 451 127 451 121"/>
<line clip-path="url(#clipPath44)" fill="none" x1="978" x2="1015" y1="481" y2="481"/>
<line clip-path="url(#clipPath44)" fill="none" x1="1015" x2="1015" y1="481" y2="425"/>
<line clip-path="url(#clipPath44)" fill="none" x1="1015" x2="964" y1="425" y2="425"/>
<line clip-path="url(#clipPath44)" fill="none" x1="964" x2="964" y1="425" y2="460"/>
<polygon clip-path="url(#clipPath52)" points=" 964 460 961 453 967 453" stroke="none"/>
<polygon fill="none" clip-path="url(#clipPath52)" points=" 964 460 961 453 967 453"/>
<text xml:space="preserve" x="826" y="414" clip-path="url(#clipPath53)" stroke="none">tick [counter &lt; 3] / counter += 1</text>
<line clip-path="url(#clipPath44)" fill="none" x1="404" x2="404" y1="413" y2="557"/>
<polygon clip-path="url(#clipPath54)" points=" 404 557 401 550 407 550" stroke="none"/>
<polygon fill="none" clip-path="url(#clipPath54)" points=" 404 557 401 550 407 550"/>
<text xml:space="preserve" x="311" y="481" clip-path="url(#clipPath55)" stroke="none">switchPhase /</text>
<text xml:space="preserve" x="311" y="495" clip-path="url(#clipPath55)" stroke="none">raise go</text>
<line clip-path="url(#clipPath44)" fill="none" x1="423" x2="423" y1="605" y2="622"/>
<line clip-path="url(#clipPath44)" fill="none" x1="423" x2="390" y1="622" y2="622"/>
<line clip-path="url(#clipPath44)" fill="none" x1="390" x2="390" y1="622" y2="605"/>
<polygon clip-path="url(#clipPath56)" points=" 390 605 393 612 387 612" stroke="none"/>
<polygon fill="none" clip-path="url(#clipPath56)" points=" 390 605 393 612 387 612"/>
<text xml:space="preserve" x="394" y="641" clip-path="url(#clipPath57)" stroke="none">tick</text>
<line clip-path="url(#clipPath44)" fill="none" x1="695" x2="655" y1="495" y2="495"/>
<line clip-path="url(#clipPath44)" fill="none" x1="655" x2="655" y1="495" y2="540"/>
<line clip-path="url(#clipPath44)" fill="none" x1="655" x2="708" y1="540" y2="540"/>
<line clip-path="url(#clipPath44)" fill="none" x1="708" x2="708" y1="540" y2="508"/>
<polygon clip-path="url(#clipPath58)" points=" 708 508 711 515 705 515" stroke="none"/>
<polygon fill="none" clip-path="url(#clipPath58)" points=" 708 508 711 515 705 515"/>
<text xml:space="preserve" x="641" y="569" clip-path="url(#clipPath59)" stroke="none">tick [counter &lt; 3] / counter += 1</text>
<line clip-path="url(#clipPath44)" fill="none" x1="385" x2="385" y1="365" y2="347"/>
<line clip-path="url(#clipPath44)" fill="none" x1="385" x2="419" y1="347" y2="347"/>
<line clip-path="url(#clipPath44)" fill="none" x1="419" x2="419" y1="347" y2="365"/>
<polygon clip-path="url(#clipPath60)" points=" 419 365 416 358 422 358" stroke="none"/>
<polygon fill="none" clip-path="url(#clipPath60)" points=" 419 365 416 358 422 358"/>
<text xml:space="preserve" x="394" y="341" clip-path="url(#clipPath61)" stroke="none">tick</text>
<line clip-path="url(#clipPath44)" fill="none" x1="765" x2="765" y1="185" y2="153"/>
<line clip-path="url(#clipPath44)" fill="none" x1="765" x2="832" y1="153" y2="153"/>
<line clip-path="url(#clipPath44)" fill="none" x1="832" x2="832" y1="153" y2="185"/>
<polygon clip-path="url(#clipPath62)" points=" 832 185 829 178 835 178" stroke="none"/>
<polygon fill="none" clip-path="url(#clipPath62)" points=" 832 185 829 178 835 178"/>
<text xml:space="preserve" x="785" y="147" clip-path="url(#clipPath63)" stroke="none">reset</text>
<line clip-path="url(#clipPath44)" fill="none" x1="695" x2="651" y1="477" y2="477"/>
<line clip-path="url(#clipPath44)" fill="none" x1="651" x2="651" y1="477" y2="428"/>
<line clip-path="url(#clipPath44)" fill="none" x1="651" x2="704" y1="428" y2="428"/>
<line clip-path="url(#clipPath44)" fill="none" x1="704" x2="704" y1="428" y2="460"/>
<polygon clip-path="url(#clipPath64)" points=" 704 460 701 453 707 453" stroke="none"/>
<polygon fill="none" clip-path="url(#clipPath64)" points=" 704 460 701 453 707 453"/>
<text xml:space="preserve" x="636" y="418" clip-path="url(#clipPath65)" stroke="none">switchPhase</text>
<line clip-path="url(#clipPath44)" fill="none" x1="118" x2="118" y1="365" y2="347"/>
<line clip-path="url(#clipPath44)" fill="none" x1="118" x2="153" y1="347" y2="347"/>
<line clip-path="url(#clipPath44)" fill="none" x1="153" x2="153" y1="347" y2="365"/>
<polygon clip-path="url(#clipPath66)" points=" 153 365 150 358 156 358" stroke="none"/>
<polygon fill="none" clip-path="url(#clipPath66)" points=" 153 365 150 358 156 358"/>
<text xml:space="preserve" x="129" y="341" clip-path="url(#clipPath67)" stroke="none">tick</text>
<line clip-path="url(#clipPath44)" fill="none" x1="194" x2="345" y1="393" y2="393"/>
<polygon clip-path="url(#clipPath68)" points=" 345 393 338 396 338 390" stroke="none"/>
<polygon fill="none" clip-path="url(#clipPath68)" points=" 345 393 338 396 338 390"/>
<text xml:space="preserve" x="229" y="383" clip-path="url(#clipPath69)" stroke="none">switchPhase</text>
<line clip-path="url(#clipPath44)" fill="none" x1="978" x2="1020" y1="495" y2="495"/>
<line clip-path="url(#clipPath44)" fill="none" x1="1020" x2="1020" y1="495" y2="540"/>
<line clip-path="url(#clipPath44)" fill="none" x1="1020" x2="965" y1="540" y2="540"/>
<line clip-path="url(#clipPath44)" fill="none" x1="965" x2="965" y1="540" y2="508"/>
<polygon clip-path="url(#clipPath70)" points=" 965 508 968 515 962 515" stroke="none"/>
<polygon fill="none" clip-path="url(#clipPath70)" points=" 965 508 968 515 962 515"/>
<text xml:space="preserve" x="961" y="564" clip-path="url(#clipPath71)" stroke="none">switchPhase</text>
<line clip-path="url(#clipPath44)" fill="none" x1="735" x2="735" y1="508" y2="545"/>
<line clip-path="url(#clipPath44)" fill="none" x1="735" x2="945" y1="545" y2="545"/>
<line clip-path="url(#clipPath44)" fill="none" x1="945" x2="945" y1="545" y2="508"/>
<polygon clip-path="url(#clipPath72)" points=" 945 508 948 515 942 515" stroke="none"/>
<polygon fill="none" clip-path="url(#clipPath72)" points=" 945 508 948 515 942 515"/>
<text xml:space="preserve" x="739" y="539" clip-path="url(#clipPath73)" stroke="none">tick [counter &gt;= 3] / counter = 0</text>
<line clip-path="url(#clipPath44)" fill="none" x1="345" x2="191" y1="574" y2="574"/>
<polygon clip-path="url(#clipPath74)" points=" 191 574 198 571 198 577" stroke="none"/>
<polygon fill="none" clip-path="url(#clipPath74)" points=" 191 574 198 571 198 577"/>
<text xml:space="preserve" x="231" y="591" clip-path="url(#clipPath75)" stroke="none">switchPhase</text>
<line clip-path="url(#clipPath44)" fill="none" x1="134" x2="134" y1="552" y2="413"/>
<polygon clip-path="url(#clipPath76)" points=" 134 413 137 420 131 420" stroke="none"/>
<polygon fill="none" clip-path="url(#clipPath76)" points=" 134 413 137 420 131 420"/>
<text xml:space="preserve" x="141" y="478" clip-path="url(#clipPath77)" stroke="none">switchPhase /</text>
<text xml:space="preserve" x="141" y="492" clip-path="url(#clipPath77)" stroke="none">raise stop</text>
<line clip-path="url(#clipPath44)" fill="none" x1="585" x2="585" y1="149" y2="185"/>
<polygon clip-path="url(#clipPath78)" points=" 585 185 582 178 588 178" stroke="none"/>
<polygon fill="none" clip-path="url(#clipPath78)" points=" 585 185 582 178 588 178"/>
<text xml:space="preserve" x="590" y="172" clip-path="url(#clipPath79)" stroke="none">onOff</text>
<line clip-path="url(#clipPath44)" fill="none" x1="540" x2="500" y1="289" y2="289"/>
<polygon clip-path="url(#clipPath80)" points=" 500 289 507 286 507 292" stroke="none"/>
<polygon fill="none" clip-path="url(#clipPath80)" points=" 500 289 507 286 507 292"/>
<line clip-path="url(#clipPath44)" fill="none" x1="507" x2="507" y1="185" y2="149"/>
<polygon clip-path="url(#clipPath81)" points=" 507 149 510 156 504 156" stroke="none"/>
<polygon fill="none" clip-path="url(#clipPath81)" points=" 507 149 510 156 504 156"/>
<text xml:space="preserve" x="465" y="172" clip-path="url(#clipPath82)" stroke="none">onOff</text>
<line clip-path="url(#clipPath44)" fill="none" x1="500" x2="610" y1="407" y2="407"/>
<polygon clip-path="url(#clipPath83)" points=" 610 407 603 410 603 404" stroke="none"/>
<polygon fill="none" clip-path="url(#clipPath83)" points=" 610 407 603 410 603 404"/>
<text xml:space="preserve" x="517" y="389" clip-path="url(#clipPath84)" stroke="none">switchMode /</text>
<text xml:space="preserve" x="517" y="403" clip-path="url(#clipPath84)" stroke="none">raise alert</text>
<line clip-path="url(#clipPath44)" fill="none" x1="145" x2="145" y1="600" y2="622"/>
<line clip-path="url(#clipPath44)" fill="none" x1="145" x2="115" y1="622" y2="622"/>
<line clip-path="url(#clipPath44)" fill="none" x1="115" x2="115" y1="622" y2="600"/>
<polygon clip-path="url(#clipPath85)" points=" 115 600 118 607 112 607" stroke="none"/>
<polygon fill="none" clip-path="url(#clipPath85)" points=" 115 600 118 607 112 607"/>
<text xml:space="preserve" x="121" y="641" clip-path="url(#clipPath86)" stroke="none">tick</text>
<line clip-path="url(#clipPath44)" fill="none" x1="610" x2="500" y1="541" y2="541"/>
<polygon clip-path="url(#clipPath87)" points=" 500 541 507 538 507 544" stroke="none"/>
<polygon fill="none" clip-path="url(#clipPath87)" points=" 500 541 507 538 507 544"/>
<text xml:space="preserve" x="518" y="561" clip-path="url(#clipPath88)" stroke="none">switchMode</text>
</g>
</g>
</svg>
