<?xml version="1.0" encoding="UTF-8"?><svg xmlns="http://www.w3.org/2000/svg" xmlns:xlink="http://www.w3.org/1999/xlink" stroke-dasharray="none" shape-rendering="auto" font-family="'Dialog'" width="817" text-rendering="auto" fill-opacity="1" contentScriptType="text/ecmascript" color-interpolation="auto" color-rendering="auto" preserveAspectRatio="xMidYMid meet" font-size="12" viewBox="0 0 817 613" fill="black" stroke="black" image-rendering="auto" stroke-miterlimit="10" zoomAndPan="magnify" version="1.0" stroke-linecap="square" stroke-linejoin="miter" contentStyleType="text/css" font-style="normal" height="613" stroke-width="1" stroke-dashoffset="0" font-weight="normal" stroke-opacity="1">
<!--Generated by the Batik Graphics2D SVG Generator-->
<defs id="genericDefs"/>
<g>
<defs id="defs1">
<linearGradient x1="10" x2="10" y1="10" gradientUnits="userSpaceOnUse" y2="603" xlink:type="simple" xlink:actuate="onLoad" id="linearGradient1" xlink:show="other" spreadMethod="pad">
<stop stop-opacity="1" stop-color="white" offset="0%"/>
<stop stop-opacity="1" stop-color="white" offset="100%"/>
</linearGradient>
<linearGradient x1="315" x2="315" y1="92" gradientUnits="userSpaceOnUse" y2="125" xlink:type="simple" xlink:actuate="onLoad" id="linearGradient2" xlink:show="other" spreadMethod="pad">
<stop stop-opacity="1" stop-color="white" offset="0%"/>
<stop stop-opacity="1" stop-color="white" offset="100%"/>
</linearGradient>
<linearGradient x1="21" x2="21" y1="192" gradientUnits="userSpaceOnUse" y2="579" xlink:type="simple" xlink:actuate="onLoad" id="linearGradient3" xlink:show="other" spreadMethod="pad">
<stop stop-opacity="1" stop-color="white" offset="0%"/>
<stop stop-opacity="1" stop-color="white" offset="100%"/>
</linearGradient>
<linearGradient x1="27" x2="27" y1="224" gradientUnits="userSpaceOnUse" y2="582" xlink:type="simple" xlink:actuate="onLoad" id="linearGradient4" xlink:show="other" spreadMethod="pad">
<stop stop-opacity="1" stop-color="white" offset="0%"/>
<stop stop-opacity="1" stop-color="white" offset="100%"/>
</linearGradient>
<linearGradient x1="41" x2="41" y1="262" gradientUnits="userSpaceOnUse" y2="558" xlink:type="simple" xlink:actuate="onLoad" id="linearGradient5" xlink:show="other" spreadMethod="pad">
<stop stop-opacity="1" stop-color="white" offset="0%"/>
<stop stop-opacity="1" stop-color="white" offset="100%"/>
</linearGradient>
<linearGradient x1="47" x2="47" y1="294" gradientUnits="userSpaceOnUse" y2="561" xlink:type="simple" xlink:actuate="onLoad" id="linearGradient6" xlink:show="other" spreadMethod="pad">
<stop stop-opacity="1" stop-color="white" offset="0%"/>
<stop stop-opacity="1" stop-color="white" offset="100%"/>
</linearGradient>
<linearGradient x1="120" x2="120" y1="344" gradientUnits="userSpaceOnUse" y2="377" xlink:type="simple" xlink:actuate="onLoad" id="linearGradient7" xlink:show="other" spreadMethod="pad">
<stop stop-opacity="1" stop-color="white" offset="0%"/>
<stop stop-opacity="1" stop-color="white" offset="100%"/>
</linearGradient>
<linearGradient x1="405" x2="405" y1="344" gradientUnits="userSpaceOnUse" y2="377" xlink:type="simple" xlink:actuate="onLoad" id="linearGradient8" xlink:show="other" spreadMethod="pad">
<stop stop-opacity="1" stop-color="white" offset="0%"/>
<stop stop-opacity="1" stop-color="white" offset="100%"/>
</linearGradient>
<linearGradient x1="123" x2="123" y1="494" gradientUnits="userSpaceOnUse" y2="527" xlink:type="simple" xlink:actuate="onLoad" id="linearGradient9" xlink:show="other" spreadMethod="pad">
<stop stop-opacity="1" stop-color="white" offset="0%"/>
<stop stop-opacity="1" stop-color="white" offset="100%"/>
</linearGradient>
<linearGradient x1="405" x2="405" y1="494" gradientUnits="userSpaceOnUse" y2="527" xlink:type="simple" xlink:actuate="onLoad" id="linearGradient10" xlink:show="other" spreadMethod="pad">
<stop stop-opacity="1" stop-color="white" offset="0%"/>
<stop stop-opacity="1" stop-color="white" offset="100%"/>
</linearGradient>
<linearGradient x1="655" x2="655" y1="362" gradientUnits="userSpaceOnUse" y2="413" xlink:type="simple" xlink:actuate="onLoad" id="linearGradient11" xlink:show="other" spreadMethod="pad">
<stop stop-opacity="1" stop-color="white" offset="0%"/>
<stop stop-opacity="1" stop-color="white" offset="100%"/>
</linearGradient>
<clipPath clipPathUnits="userSpaceOnUse" id="clipPath1">
<path d="M9 9 L808 9 L808 604 L9 604 L9 9 Z"/>
</clipPath>
<clipPath clipPathUnits="userSpaceOnUse" id="clipPath2">
<path d="M16 15 L81 15 L81 31 L16 31 L16 15 Z"/>
</clipPath>
<clipPath clipPathUnits="userSpaceOnUse" id="clipPath3">
<path d="M309 79 L502 79 L502 139 L309 139 L309 79 Z"/>
</clipPath>
<clipPath clipPathUnits="userSpaceOnUse" id="clipPath4">
<path d="M314 84 L497 84 L497 134 L314 134 L314 84 Z"/>
</clipPath>
<clipPath clipPathUnits="userSpaceOnUse" id="clipPath5">
<path d="M394 90 L418 90 L418 106 L394 106 L394 90 Z"/>
</clipPath>
<clipPath clipPathUnits="userSpaceOnUse" id="clipPath6">
<path d="M259 100 L276 100 L276 117 L259 117 L259 100 Z"/>
</clipPath>
<clipPath clipPathUnits="userSpaceOnUse" id="clipPath7">
<path d="M15 179 L797 179 L797 593 L15 593 L15 179 Z"/>
</clipPath>
<clipPath clipPathUnits="userSpaceOnUse" id="clipPath8">
<path d="M20 184 L792 184 L792 588 L20 588 L20 184 Z"/>
</clipPath>
<clipPath clipPathUnits="userSpaceOnUse" id="clipPath9">
<path d="M395 190 L417 190 L417 206 L395 206 L395 190 Z"/>
</clipPath>
<clipPath clipPathUnits="userSpaceOnUse" id="clipPath10">
<path d="M26 223 L787 223 L787 583 L26 583 L26 223 Z"/>
</clipPath>
<clipPath clipPathUnits="userSpaceOnUse" id="clipPath11">
<path d="M33 229 L82 229 L82 245 L33 245 L33 229 Z"/>
</clipPath>
<clipPath clipPathUnits="userSpaceOnUse" id="clipPath12">
<path d="M35 249 L567 249 L567 572 L35 572 L35 249 Z"/>
</clipPath>
<clipPath clipPathUnits="userSpaceOnUse" id="clipPath13">
<path d="M40 254 L562 254 L562 567 L40 567 L40 254 Z"/>
</clipPath>
<clipPath clipPathUnits="userSpaceOnUse" id="clipPath14">
<path d="M276 260 L327 260 L327 276 L276 276 L276 260 Z"/>
</clipPath>
<clipPath clipPathUnits="userSpaceOnUse" id="clipPath15">
<path d="M46 293 L557 293 L557 562 L46 562 L46 293 Z"/>
</clipPath>
<clipPath clipPathUnits="userSpaceOnUse" id="clipPath16">
<path d="M53 299 L94 299 L94 315 L53 315 L53 299 Z"/>
</clipPath>
<clipPath clipPathUnits="userSpaceOnUse" id="clipPath17">
<path d="M68 352 L85 352 L85 369 L68 369 L68 352 Z"/>
</clipPath>
<clipPath clipPathUnits="userSpaceOnUse" id="clipPath18">
<path d="M114 331 L245 331 L245 391 L114 391 L114 331 Z"/>
</clipPath>
<clipPath clipPathUnits="userSpaceOnUse" id="clipPath19">
<path d="M119 336 L240 336 L240 386 L119 386 L119 336 Z"/>
</clipPath>
<clipPath clipPathUnits="userSpaceOnUse" id="clipPath20">
<path d="M163 342 L196 342 L196 358 L163 358 L163 342 Z"/>
</clipPath>
<clipPath clipPathUnits="userSpaceOnUse" id="clipPath21">
<path d="M399 331 L530 331 L530 391 L399 391 L399 331 Z"/>
</clipPath>
<clipPath clipPathUnits="userSpaceOnUse" id="clipPath22">
<path d="M404 336 L525 336 L525 386 L404 386 L404 336 Z"/>
</clipPath>
<clipPath clipPathUnits="userSpaceOnUse" id="clipPath23">
<path d="M437 342 L492 342 L492 358 L437 358 L437 342 Z"/>
</clipPath>
<clipPath clipPathUnits="userSpaceOnUse" id="clipPath24">
<path d="M117 481 L242 481 L242 541 L117 541 L117 481 Z"/>
</clipPath>
<clipPath clipPathUnits="userSpaceOnUse" id="clipPath25">
<path d="M122 486 L237 486 L237 536 L122 536 L122 486 Z"/>
</clipPath>
<clipPath clipPathUnits="userSpaceOnUse" id="clipPath26">
<path d="M150 492 L210 492 L210 508 L150 508 L150 492 Z"/>
</clipPath>
<clipPath clipPathUnits="userSpaceOnUse" id="clipPath27">
<path d="M399 481 L530 481 L530 541 L399 541 L399 481 Z"/>
</clipPath>
<clipPath clipPathUnits="userSpaceOnUse" id="clipPath28">
<path d="M404 486 L525 486 L525 536 L404 536 L404 486 Z"/>
</clipPath>
<clipPath clipPathUnits="userSpaceOnUse" id="clipPath29">
<path d="M454 492 L475 492 L475 508 L454 508 L454 492 Z"/>
</clipPath>
<clipPath clipPathUnits="userSpaceOnUse" id="clipPath30">
<path d="M599 279 L616 279 L616 296 L599 296 L599 279 Z"/>
</clipPath>
<clipPath clipPathUnits="userSpaceOnUse" id="clipPath31">
<path d="M649 349 L776 349 L776 427 L649 427 L649 349 Z"/>
</clipPath>
<clipPath clipPathUnits="userSpaceOnUse" id="clipPath32">
<path d="M654 354 L771 354 L771 422 L654 422 L654 354 Z"/>
</clipPath>
<clipPath clipPathUnits="userSpaceOnUse" id="clipPath33">
<path d="M695 360 L730 360 L730 376 L695 376 L695 360 Z"/>
</clipPath>
<clipPath clipPathUnits="userSpaceOnUse" id="clipPath34">
<path d="M-1 -1 L818 -1 L818 614 L-1 614 L-1 -1 Z"/>
</clipPath>
<clipPath clipPathUnits="userSpaceOnUse" id="clipPath35">
<path d="M560 283 L570 283 L570 292 L560 292 L560 283 Z"/>
</clipPath>
<clipPath clipPathUnits="userSpaceOnUse" id="clipPath36">
<path d="M175 384 L184 384 L184 394 L175 394 L175 384 Z"/>
</clipPath>
<clipPath clipPathUnits="userSpaceOnUse" id="clipPath37">
<path d="M185 418 L276 418 L276 448 L185 448 L185 418 Z"/>
</clipPath>
<clipPath clipPathUnits="userSpaceOnUse" id="clipPath38">
<path d="M460 479 L469 479 L469 489 L460 489 L460 479 Z"/>
</clipPath>
<clipPath clipPathUnits="userSpaceOnUse" id="clipPath39">
<path d="M370 418 L461 418 L461 448 L370 448 L370 418 Z"/>
</clipPath>
<clipPath clipPathUnits="userSpaceOnUse" id="clipPath40">
<path d="M615 177 L624 177 L624 187 L615 187 L615 177 Z"/>
</clipPath>
<clipPath clipPathUnits="userSpaceOnUse" id="clipPath41">
<path d="M575 130 L610 130 L610 146 L575 146 L575 130 Z"/>
</clipPath>
<clipPath clipPathUnits="userSpaceOnUse" id="clipPath42">
<path d="M683 420 L692 420 L692 430 L683 430 L683 420 Z"/>
</clipPath>
<clipPath clipPathUnits="userSpaceOnUse" id="clipPath43">
<path d="M676 452 L757 452 L757 468 L676 468 L676 452 Z"/>
</clipPath>
<clipPath clipPathUnits="userSpaceOnUse" id="clipPath44">
<path d="M307 104 L317 104 L317 113 L307 113 L307 104 Z"/>
</clipPath>
<clipPath clipPathUnits="userSpaceOnUse" id="clipPath45">
<path d="M360 132 L369 132 L369 142 L360 142 L360 132 Z"/>
</clipPath>
<clipPath clipPathUnits="userSpaceOnUse" id="clipPath46">
<path d="M321 150 L358 150 L358 166 L321 166 L321 150 Z"/>
</clipPath>
<clipPath clipPathUnits="userSpaceOnUse" id="clipPath47">
<path d="M112 356 L122 356 L122 365 L112 365 L112 356 Z"/>
</clipPath>
<clipPath clipPathUnits="userSpaceOnUse" id="clipPath48">
<path d="M442 177 L451 177 L451 187 L442 187 L442 177 Z"/>
</clipPath>
<clipPath clipPathUnits="userSpaceOnUse" id="clipPath49">
<path d="M450 150 L487 150 L487 166 L450 166 L450 150 Z"/>
</clipPath>
<clipPath clipPathUnits="userSpaceOnUse" id="clipPath50">
<path d="M647 365 L657 365 L657 374 L647 374 L647 365 Z"/>
</clipPath>
<clipPath clipPathUnits="userSpaceOnUse" id="clipPath51">
<path d="M569 337 L655 337 L655 367 L569 367 L569 337 Z"/>
</clipPath>
<clipPath clipPathUnits="userSpaceOnUse" id="clipPath52">
<path d="M560 401 L570 401 L570 410 L560 410 L560 401 Z"/>
</clipPath>
<clipPath clipPathUnits="userSpaceOnUse" id="clipPath53">
<path d="M570 411 L646 411 L646 427 L570 427 L570 411 Z"/>
</clipPath>
<clipPath clipPathUnits="userSpaceOnUse" id="clipPath54">
<path d="M461 77 L470 77 L470 87 L461 87 L461 77 Z"/>
</clipPath>
<clipPath clipPathUnits="userSpaceOnUse" id="clipPath55">
<path d="M540 60 L744 60 L744 76 L540 76 L540 60 Z"/>
</clipPath>
<clipPath clipPathUnits="userSpaceOnUse" id="clipPath56">
<path d="M235 505 L245 505 L245 514 L235 514 L235 505 Z"/>
</clipPath>
<clipPath clipPathUnits="userSpaceOnUse" id="clipPath57">
<path d="M282 512 L363 512 L363 528 L282 528 L282 512 Z"/>
</clipPath>
<clipPath clipPathUnits="userSpaceOnUse" id="clipPath58">
<path d="M397 357 L407 357 L407 366 L397 366 L397 357 Z"/>
</clipPath>
<clipPath clipPathUnits="userSpaceOnUse" id="clipPath59">
<path d="M280 337 L361 337 L361 353 L280 353 L280 337 Z"/>
</clipPath>
</defs>
<g fill="url(#linearGradient1)" font-family="'Verdana'" stroke-linejoin="round" stroke="url(#linearGradient1)" stroke-width="0" stroke-miterlimit="0">
<rect x="10" y="10" clip-path="url(#clipPath1)" width="797" height="593" stroke="none"/>
</g>
<g stroke-width="1.1" font-family="'Verdana'" stroke-linecap="butt">
<rect x="10" y="10" clip-path="url(#clipPath1)" fill="none" width="796" height="592"/>
<text xml:space="preserve" x="17" y="29" clip-path="url(#clipPath2)" stroke="none">Operation</text>
<rect x="320" y="90" clip-path="url(#clipPath3)" fill="none" width="180" rx="7.5" opacity="0.0784" ry="7.5" height="47" stroke="gray" stroke-width="2.1"/>
<rect x="319" y="89" clip-path="url(#clipPath3)" fill="none" width="180" rx="7.5" opacity="0.1176" ry="7.5" height="47" stroke="gray" stroke-width="2.1"/>
<rect x="318" y="88" clip-path="url(#clipPath3)" fill="none" width="180" rx="7.5" opacity="0.2353" ry="7.5" height="47" stroke="gray" stroke-width="2.1"/>
<rect x="317" y="87" clip-path="url(#clipPath3)" fill="none" width="180" rx="7.5" opacity="0.3922" ry="7.5" height="47" stroke="gray" stroke-width="2.1"/>
<rect x="316" y="86" clip-path="url(#clipPath3)" fill="none" width="180" rx="7.5" opacity="0.5882" ry="7.5" height="47" stroke="gray" stroke-width="2.1"/>
<rect x="315" y="92" clip-path="url(#clipPath4)" fill="url(#linearGradient2)" width="181" height="33" stroke="none" stroke-width="2.1"/>
<path clip-path="url(#clipPath4)" fill="white" fill-rule="evenodd" d="M315 124.5 C315 128.6421 318.3578 132 322.5 132 L487.5 132 C491.6421 132 495 128.6421 495 124.5" stroke="none" stroke-width="2.1"/>
<path clip-path="url(#clipPath4)" fill="white" fill-rule="evenodd" d="M495 92.5 C495 88.3579 491.6421 85 487.5 85 C487.5 85 487.5 85 487.5 85 L322.5 85 C318.3578 85 315 88.3579 315 92.5" stroke="none" stroke-width="2.1"/>
<rect x="315" y="85" clip-path="url(#clipPath4)" fill="none" width="180" rx="7.5" ry="7.5" height="47"/>
<text x="395" y="104" clip-path="url(#clipPath5)" stroke="none" font-weight="bold" xml:space="preserve">Off</text>
<circle r="6.5" clip-path="url(#clipPath6)" cx="266.5" cy="107.5" stroke="none"/>
<rect x="26" y="190" clip-path="url(#clipPath7)" fill="none" width="769" rx="7.5" opacity="0.0784" ry="7.5" height="401" stroke="gray" stroke-width="2.1"/>
<rect x="25" y="189" clip-path="url(#clipPath7)" fill="none" width="769" rx="7.5" opacity="0.1176" ry="7.5" height="401" stroke="gray" stroke-width="2.1"/>
<rect x="24" y="188" clip-path="url(#clipPath7)" fill="none" width="769" rx="7.5" opacity="0.2353" ry="7.5" height="401" stroke="gray" stroke-width="2.1"/>
<rect x="23" y="187" clip-path="url(#clipPath7)" fill="none" width="769" rx="7.5" opacity="0.3922" ry="7.5" height="401" stroke="gray" stroke-width="2.1"/>
<rect x="22" y="186" clip-path="url(#clipPath7)" fill="none" width="769" rx="7.5" opacity="0.5882" ry="7.5" height="401" stroke="gray" stroke-width="2.1"/>
<rect x="21" y="192" clip-path="url(#clipPath8)" fill="url(#linearGradient3)" width="770" height="387" stroke="none" stroke-width="2.1"/>
<path clip-path="url(#clipPath8)" fill="white" fill-rule="evenodd" d="M21 578.5 C21 582.6421 24.3579 586 28.5 585.9999 L782.5 585.9999 C786.6421 585.9999 789.9999 582.6421 789.9999 578.4999" stroke="none" stroke-width="2.1"/>
<path clip-path="url(#clipPath8)" fill="white" fill-rule="evenodd" d="M789.9999 192.5 C789.9999 188.3578 786.6421 185 782.4999 185 C782.4999 185 782.4999 185 782.4999 185 L28.5 185 C24.3579 185 21 188.3579 21 192.5" stroke="none" stroke-width="2.1"/>
<rect x="21" y="185" clip-path="url(#clipPath8)" fill="none" width="769" rx="7.5" ry="7.5" height="401"/>
<text x="396" y="204" clip-path="url(#clipPath9)" stroke="none" font-weight="bold" xml:space="preserve">On</text>
<rect x="27" y="224" clip-path="url(#clipPath10)" fill="url(#linearGradient4)" width="759" height="358" stroke="none"/>
<rect x="27" y="224" clip-path="url(#clipPath10)" fill="none" width="758" height="357"/>
<text xml:space="preserve" x="34" y="243" clip-path="url(#clipPath11)" stroke="none">Control</text>
<rect x="46" y="260" clip-path="url(#clipPath12)" fill="none" width="519" rx="7.5" opacity="0.0784" ry="7.5" height="310" stroke="gray" stroke-width="2.1"/>
<rect x="45" y="259" clip-path="url(#clipPath12)" fill="none" width="519" rx="7.5" opacity="0.1176" ry="7.5" height="310" stroke="gray" stroke-width="2.1"/>
<rect x="44" y="258" clip-path="url(#clipPath12)" fill="none" width="519" rx="7.5" opacity="0.2353" ry="7.5" height="310" stroke="gray" stroke-width="2.1"/>
<rect x="43" y="257" clip-path="url(#clipPath12)" fill="none" width="519" rx="7.5" opacity="0.3922" ry="7.5" height="310" stroke="gray" stroke-width="2.1"/>
<rect x="42" y="256" clip-path="url(#clipPath12)" fill="none" width="519" rx="7.5" opacity="0.5882" ry="7.5" height="310" stroke="gray" stroke-width="2.1"/>
<rect x="41" y="262" clip-path="url(#clipPath13)" fill="url(#linearGradient5)" width="520" height="296" stroke="none" stroke-width="2.1"/>
<path clip-path="url(#clipPath13)" fill="white" fill-rule="evenodd" d="M41 557.5 C41 561.6421 44.3579 565 48.5 565 L552.5 565 C556.6421 565 559.9999 561.6421 559.9999 557.5" stroke="none" stroke-width="2.1"/>
<path clip-path="url(#clipPath13)" fill="white" fill-rule="evenodd" d="M559.9999 262.5 C559.9999 258.3578 556.6421 255 552.4999 255 C552.4999 255 552.4999 255 552.4999 255 L48.5 255 C44.3579 255 41 258.3579 41 262.5" stroke="none" stroke-width="2.1"/>
<rect x="41" y="255" clip-path="url(#clipPath13)" fill="none" width="519" rx="7.5" ry="7.5" height="310"/>
<text x="277" y="274" clip-path="url(#clipPath14)" stroke="none" font-weight="bold" xml:space="preserve">Normal</text>
<rect x="47" y="294" clip-path="url(#clipPath15)" fill="url(#linearGradient6)" width="509" height="267" stroke="none"/>
<rect x="47" y="294" clip-path="url(#clipPath15)" fill="none" width="508" height="266"/>
<text xml:space="preserve" x="54" y="313" clip-path="url(#clipPath16)" stroke="none">Phase</text>
<circle r="6.5" clip-path="url(#clipPath17)" cx="75.5" cy="359.5" stroke="none"/>
<rect x="125" y="342" clip-path="url(#clipPath18)" fill="none" width="118" rx="7.5" opacity="0.0784" ry="7.5" height="47" stroke="gray" stroke-width="2.1"/>
<rect x="124" y="341" clip-path="url(#clipPath18)" fill="none" width="118" rx="7.5" opacity="0.1176" ry="7.5" height="47" stroke="gray" stroke-width="2.1"/>
<rect x="123" y="340" clip-path="url(#clipPath18)" fill="none" width="118" rx="7.5" opacity="0.2353" ry="7.5" height="47" stroke="gray" stroke-width="2.1"/>
<rect x="122" y="339" clip-path="url(#clipPath18)" fill="none" width="118" rx="7.5" opacity="0.3922" ry="7.5" height="47" stroke="gray" stroke-width="2.1"/>
<rect x="121" y="338" clip-path="url(#clipPath18)" fill="none" width="118" rx="7.5" opacity="0.5882" ry="7.5" height="47" stroke="gray" stroke-width="2.1"/>
<rect x="120" y="344" clip-path="url(#clipPath19)" fill="url(#linearGradient7)" width="119" height="33" stroke="none" stroke-width="2.1"/>
<path clip-path="url(#clipPath19)" fill="white" fill-rule="evenodd" d="M120 376.5 C120 380.6422 123.3579 384 127.5 384 L230.5 384 C234.6421 384 238 380.6421 238 376.5" stroke="none" stroke-width="2.1"/>
<path clip-path="url(#clipPath19)" fill="white" fill-rule="evenodd" d="M238 344.5 C238 340.3578 234.6421 337 230.5 337 C230.5 337 230.5 337 230.5 337 L127.5 337 C123.3579 337 120 340.3579 120 344.5" stroke="none" stroke-width="2.1"/>
<rect x="120" y="337" clip-path="url(#clipPath19)" fill="none" width="118" rx="7.5" ry="7.5" height="47"/>
<text x="164" y="356" clip-path="url(#clipPath20)" stroke="none" font-weight="bold" xml:space="preserve">Stop</text>
<rect x="410" y="342" clip-path="url(#clipPath21)" fill="none" width="118" rx="7.5" opacity="0.0784" ry="7.5" height="47" stroke="gray" stroke-width="2.1"/>
<rect x="409" y="341" clip-path="url(#clipPath21)" fill="none" width="118" rx="7.5" opacity="0.1176" ry="7.5" height="47" stroke="gray" stroke-width="2.1"/>
<rect x="408" y="340" clip-path="url(#clipPath21)" fill="none" width="118" rx="7.5" opacity="0.2353" ry="7.5" height="47" stroke="gray" stroke-width="2.1"/>
<rect x="407" y="339" clip-path="url(#clipPath21)" fill="none" width="118" rx="7.5" opacity="0.3922" ry="7.5" height="47" stroke="gray" stroke-width="2.1"/>
<rect x="406" y="338" clip-path="url(#clipPath21)" fill="none" width="118" rx="7.5" opacity="0.5882" ry="7.5" height="47" stroke="gray" stroke-width="2.1"/>
<rect x="405" y="344" clip-path="url(#clipPath22)" fill="url(#linearGradient8)" width="119" height="33" stroke="none" stroke-width="2.1"/>
<path clip-path="url(#clipPath22)" fill="white" fill-rule="evenodd" d="M405 376.5 C405 380.6422 408.3578 384 412.5 384 L515.5 384 C519.6421 384 523 380.6421 523 376.5" stroke="none" stroke-width="2.1"/>
<path clip-path="url(#clipPath22)" fill="white" fill-rule="evenodd" d="M523 344.5 C523 340.3578 519.6421 337 515.5 337 C515.5 337 515.5 337 515.5 337 L412.5 337 C408.3578 337 405 340.3579 405 344.5" stroke="none" stroke-width="2.1"/>
<rect x="405" y="337" clip-path="url(#clipPath22)" fill="none" width="118" rx="7.5" ry="7.5" height="47"/>
<text x="438" y="356" clip-path="url(#clipPath23)" stroke="none" font-weight="bold" xml:space="preserve">Prepare</text>
<rect x="128" y="492" clip-path="url(#clipPath24)" fill="none" width="112" rx="7.5" opacity="0.0784" ry="7.5" height="47" stroke="gray" stroke-width="2.1"/>
<rect x="127" y="491" clip-path="url(#clipPath24)" fill="none" width="112" rx="7.5" opacity="0.1176" ry="7.5" height="47" stroke="gray" stroke-width="2.1"/>
<rect x="126" y="490" clip-path="url(#clipPath24)" fill="none" width="112" rx="7.5" opacity="0.2353" ry="7.5" height="47" stroke="gray" stroke-width="2.1"/>
<rect x="125" y="489" clip-path="url(#clipPath24)" fill="none" width="112" rx="7.5" opacity="0.3922" ry="7.5" height="47" stroke="gray" stroke-width="2.1"/>
<rect x="124" y="488" clip-path="url(#clipPath24)" fill="none" width="112" rx="7.5" opacity="0.5882" ry="7.5" height="47" stroke="gray" stroke-width="2.1"/>
<rect x="123" y="494" clip-path="url(#clipPath25)" fill="url(#linearGradient9)" width="113" height="33" stroke="none" stroke-width="2.1"/>
<path clip-path="url(#clipPath25)" fill="white" fill-rule="evenodd" d="M123 526.5 C123 530.6422 126.3579 534 130.5 534 L227.5 534 C231.6421 534 235 530.6421 235 526.5" stroke="none" stroke-width="2.1"/>
<path clip-path="url(#clipPath25)" fill="white" fill-rule="evenodd" d="M235 494.5 C235 490.3578 231.6421 487 227.5 487 C227.5 487 227.5 487 227.5 487 L130.5 487 C126.3579 487 123 490.3578 123 494.5" stroke="none" stroke-width="2.1"/>
<rect x="123" y="487" clip-path="url(#clipPath25)" fill="none" width="112" rx="7.5" ry="7.5" height="47"/>
<text x="151" y="506" clip-path="url(#clipPath26)" stroke="none" font-weight="bold" xml:space="preserve">Continue</text>
<rect x="410" y="492" clip-path="url(#clipPath27)" fill="none" width="118" rx="7.5" opacity="0.0784" ry="7.5" height="47" stroke="gray" stroke-width="2.1"/>
<rect x="409" y="491" clip-path="url(#clipPath27)" fill="none" width="118" rx="7.5" opacity="0.1176" ry="7.5" height="47" stroke="gray" stroke-width="2.1"/>
<rect x="408" y="490" clip-path="url(#clipPath27)" fill="none" width="118" rx="7.5" opacity="0.2353" ry="7.5" height="47" stroke="gray" stroke-width="2.1"/>
<rect x="407" y="489" clip-path="url(#clipPath27)" fill="none" width="118" rx="7.5" opacity="0.3922" ry="7.5" height="47" stroke="gray" stroke-width="2.1"/>
<rect x="406" y="488" clip-path="url(#clipPath27)" fill="none" width="118" rx="7.5" opacity="0.5882" ry="7.5" height="47" stroke="gray" stroke-width="2.1"/>
<rect x="405" y="494" clip-path="url(#clipPath28)" fill="url(#linearGradient10)" width="119" height="33" stroke="none" stroke-width="2.1"/>
<path clip-path="url(#clipPath28)" fill="white" fill-rule="evenodd" d="M405 526.5 C405 530.6422 408.3578 534 412.5 534 L515.5 534 C519.6421 534 523 530.6421 523 526.5" stroke="none" stroke-width="2.1"/>
<path clip-path="url(#clipPath28)" fill="white" fill-rule="evenodd" d="M523 494.5 C523 490.3578 519.6421 487 515.5 487 C515.5 487 515.5 487 515.5 487 L412.5 487 C408.3578 487 405 490.3578 405 494.5" stroke="none" stroke-width="2.1"/>
<rect x="405" y="487" clip-path="url(#clipPath28)" fill="none" width="118" rx="7.5" ry="7.5" height="47"/>
<text x="455" y="506" clip-path="url(#clipPath29)" stroke="none" font-weight="bold" xml:space="preserve">Go</text>
<circle r="6.5" clip-path="url(#clipPath30)" cx="606.5" cy="286.5" stroke="none"/>
<rect x="660" y="360" clip-path="url(#clipPath31)" fill="none" width="114" rx="7.5" opacity="0.0784" ry="7.5" height="65" stroke="gray" stroke-width="2.1"/>
<rect x="659" y="359" clip-path="url(#clipPath31)" fill="none" width="114" rx="7.5" opacity="0.1176" ry="7.5" height="65" stroke="gray" stroke-width="2.1"/>
<rect x="658" y="358" clip-path="url(#clipPath31)" fill="none" width="114" rx="7.5" opacity="0.2353" ry="7.5" height="65" stroke="gray" stroke-width="2.1"/>
<rect x="657" y="357" clip-path="url(#clipPath31)" fill="none" width="114" rx="7.5" opacity="0.3922" ry="7.5" height="65" stroke="gray" stroke-width="2.1"/>
<rect x="656" y="356" clip-path="url(#clipPath31)" fill="none" width="114" rx="7.5" opacity="0.5882" ry="7.5" height="65" stroke="gray" stroke-width="2.1"/>
<rect x="655" y="362" clip-path="url(#clipPath32)" fill="url(#linearGradient11)" width="115" height="51" stroke="none" stroke-width="2.1"/>
<path clip-path="url(#clipPath32)" fill="white" fill-rule="evenodd" d="M655 412.5 C655 416.6422 658.3578 420 662.5 420 L761.5 420 C765.6421 420 768.9999 416.6421 768.9999 412.5" stroke="none" stroke-width="2.1"/>
<path clip-path="url(#clipPath32)" fill="white" fill-rule="evenodd" d="M768.9999 362.5 C768.9999 358.3578 765.6421 355 761.4999 355 C761.4999 355 761.4999 355 761.4999 355 L662.4999 355 C658.3578 355 654.9999 358.3578 654.9999 362.5" stroke="none" stroke-width="2.1"/>
<rect x="655" y="355" clip-path="url(#clipPath32)" fill="none" width="114" rx="7.5" ry="7.5" height="65"/>
<text x="696" y="374" clip-path="url(#clipPath33)" stroke="none" font-weight="bold" xml:space="preserve">Alert</text>
<line clip-path="url(#clipPath34)" fill="none" x1="600" x2="561" y1="287" y2="287"/>
<polygon clip-path="url(#clipPath35)" points=" 561 287 568 284 568 290" stroke="none"/>
<polygon fill="none" clip-path="url(#clipPath35)" points=" 561 287 568 284 568 290"/>
<line clip-path="url(#clipPath34)" fill="none" x1="179" x2="179" y1="487" y2="385"/>
<polygon clip-path="url(#clipPath36)" points=" 179 385 182 392 176 392" stroke="none"/>
<polygon fill="none" clip-path="url(#clipPath36)" points=" 179 385 182 392 176 392"/>
<text xml:space="preserve" x="186" y="432" clip-path="url(#clipPath37)" stroke="none">switchPhase /</text>
<text xml:space="preserve" x="186" y="446" clip-path="url(#clipPath37)" stroke="none">raise stop</text>
<line clip-path="url(#clipPath34)" fill="none" x1="464" x2="464" y1="385" y2="487"/>
<polygon clip-path="url(#clipPath38)" points=" 464 487 461 480 467 480" stroke="none"/>
<polygon fill="none" clip-path="url(#clipPath38)" points=" 464 487 461 480 467 480"/>
<text xml:space="preserve" x="371" y="432" clip-path="url(#clipPath39)" stroke="none">switchPhase /</text>
<text xml:space="preserve" x="371" y="446" clip-path="url(#clipPath39)" stroke="none">raise go</text>
<line clip-path="url(#clipPath34)" fill="none" x1="560" x2="560" y1="185" y2="150"/>
<line clip-path="url(#clipPath34)" fill="none" x1="560" x2="619" y1="150" y2="150"/>
<line clip-path="url(#clipPath34)" fill="none" x1="619" x2="619" y1="150" y2="185"/>
<polygon clip-path="url(#clipPath40)" points=" 619 185 616 178 622 178" stroke="none"/>
<polygon fill="none" clip-path="url(#clipPath40)" points=" 619 185 616 178 622 178"/>
<text xml:space="preserve" x="576" y="144" clip-path="url(#clipPath41)" stroke="none">reset</text>
<line clip-path="url(#clipPath34)" fill="none" x1="738" x2="738" y1="421" y2="447"/>
<line clip-path="url(#clipPath34)" fill="none" x1="738" x2="687" y1="447" y2="447"/>
<line clip-path="url(#clipPath34)" fill="none" x1="687" x2="687" y1="447" y2="421"/>
<polygon clip-path="url(#clipPath42)" points=" 687 421 690 428 684 428" stroke="none"/>
<polygon fill="none" clip-path="url(#clipPath42)" points=" 687 421 690 428 684 428"/>
<text xml:space="preserve" x="677" y="466" clip-path="url(#clipPath43)" stroke="none">switchPhase</text>
<line clip-path="url(#clipPath34)" fill="none" x1="274" x2="315" y1="108" y2="108"/>
<polygon clip-path="url(#clipPath44)" points=" 315 108 308 111 308 105" stroke="none"/>
<polygon fill="none" clip-path="url(#clipPath44)" points=" 315 108 308 111 308 105"/>
<line clip-path="url(#clipPath34)" fill="none" x1="364" x2="364" y1="185" y2="133"/>
<polygon clip-path="url(#clipPath45)" points=" 364 133 367 140 361 140" stroke="none"/>
<polygon fill="none" clip-path="url(#clipPath45)" points=" 364 133 367 140 361 140"/>
<text xml:space="preserve" x="322" y="164" clip-path="url(#clipPath46)" stroke="none">onOff</text>
<line clip-path="url(#clipPath34)" fill="none" x1="83" x2="120" y1="360" y2="360"/>
<polygon clip-path="url(#clipPath47)" points=" 120 360 113 363 113 357" stroke="none"/>
<polygon fill="none" clip-path="url(#clipPath47)" points=" 120 360 113 363 113 357"/>
<line clip-path="url(#clipPath34)" fill="none" x1="446" x2="446" y1="133" y2="185"/>
<polygon clip-path="url(#clipPath48)" points=" 446 185 443 178 449 178" stroke="none"/>
<polygon fill="none" clip-path="url(#clipPath48)" points=" 446 185 443 178 449 178"/>
<text xml:space="preserve" x="451" y="164" clip-path="url(#clipPath49)" stroke="none">onOff</text>
<line clip-path="url(#clipPath34)" fill="none" x1="561" x2="655" y1="369" y2="369"/>
<polygon clip-path="url(#clipPath50)" points=" 655 369 648 372 648 366" stroke="none"/>
<polygon fill="none" clip-path="url(#clipPath50)" points=" 655 369 648 372 648 366"/>
<text xml:space="preserve" x="570" y="351" clip-path="url(#clipPath51)" stroke="none">switchMode /</text>
<text xml:space="preserve" x="570" y="365" clip-path="url(#clipPath51)" stroke="none">raise alert</text>
<line clip-path="url(#clipPath34)" fill="none" x1="655" x2="561" y1="405" y2="405"/>
<polygon clip-path="url(#clipPath52)" points=" 561 405 568 402 568 408" stroke="none"/>
<polygon fill="none" clip-path="url(#clipPath52)" points=" 561 405 568 402 568 408"/>
<text xml:space="preserve" x="571" y="425" clip-path="url(#clipPath53)" stroke="none">switchMode</text>
<line clip-path="url(#clipPath34)" fill="none" x1="496" x2="530" y1="93" y2="93"/>
<line clip-path="url(#clipPath34)" fill="none" x1="530" x2="530" y1="93" y2="50"/>
<line clip-path="url(#clipPath34)" fill="none" x1="530" x2="465" y1="50" y2="50"/>
<line clip-path="url(#clipPath34)" fill="none" x1="465" x2="465" y1="50" y2="85"/>
<polygon clip-path="url(#clipPath54)" points=" 465 85 462 78 468 78" stroke="none"/>
<polygon fill="none" clip-path="url(#clipPath54)" points=" 465 85 462 78 468 78"/>
<text xml:space="preserve" x="541" y="74" clip-path="url(#clipPath55)" stroke="none">reset, switchPhase, switchMode</text>
<line clip-path="url(#clipPath34)" fill="none" x1="405" x2="236" y1="509" y2="509"/>
<polygon clip-path="url(#clipPath56)" points=" 236 509 243 506 243 512" stroke="none"/>
<polygon fill="none" clip-path="url(#clipPath56)" points=" 236 509 243 506 243 512"/>
<text xml:space="preserve" x="283" y="526" clip-path="url(#clipPath57)" stroke="none">switchPhase</text>
<line clip-path="url(#clipPath34)" fill="none" x1="239" x2="405" y1="361" y2="361"/>
<polygon clip-path="url(#clipPath58)" points=" 405 361 398 364 398 358" stroke="none"/>
<polygon fill="none" clip-path="url(#clipPath58)" points=" 405 361 398 364 398 358"/>
<text xml:space="preserve" x="281" y="351" clip-path="url(#clipPath59)" stroke="none">switchPhase</text>
</g>
</g>
</svg>
