<?xml version="1.0" encoding="UTF-8"?><svg xmlns="http://www.w3.org/2000/svg" xmlns:xlink="http://www.w3.org/1999/xlink" stroke-dasharray="none" shape-rendering="auto" font-family="'Dialog'" width="646" text-rendering="auto" fill-opacity="1" contentScriptType="text/ecmascript" color-interpolation="auto" color-rendering="auto" preserveAspectRatio="xMidYMid meet" font-size="12" viewBox="0 0 646 396" fill="black" stroke="black" image-rendering="auto" stroke-miterlimit="10" zoomAndPan="magnify" version="1.0" stroke-linecap="square" stroke-linejoin="miter" contentStyleType="text/css" font-style="normal" height="396" stroke-width="1" stroke-dashoffset="0" font-weight="normal" stroke-opacity="1">
<!--Generated by the Batik Graphics2D SVG Generator-->
<defs id="genericDefs"/>
<g>
<defs id="defs1">
<linearGradient x1="10" x2="10" y1="10" gradientUnits="userSpaceOnUse" y2="386" xlink:type="simple" xlink:actuate="onLoad" id="linearGradient1" xlink:show="other" spreadMethod="pad">
<stop stop-opacity="1" stop-color="white" offset="0%"/>
<stop stop-opacity="1" stop-color="white" offset="100%"/>
</linearGradient>
<linearGradient x1="235" x2="235" y1="187" gradientUnits="userSpaceOnUse" y2="220" xlink:type="simple" xlink:actuate="onLoad" id="linearGradient2" xlink:show="other" spreadMethod="pad">
<stop stop-opacity="1" stop-color="white" offset="0%"/>
<stop stop-opacity="1" stop-color="white" offset="100%"/>
</linearGradient>
<linearGradient x1="456" x2="456" y1="52" gradientUnits="userSpaceOnUse" y2="85" xlink:type="simple" xlink:actuate="onLoad" id="linearGradient3" xlink:show="other" spreadMethod="pad">
<stop stop-opacity="1" stop-color="rgb(255,239,239)" offset="0%"/>
<stop stop-opacity="1" stop-color="rgb(255,128,128)" offset="100%"/>
</linearGradient>
<linearGradient x1="57" x2="57" y1="52" gradientUnits="userSpaceOnUse" y2="85" xlink:type="simple" xlink:actuate="onLoad" id="linearGradient4" xlink:show="other" spreadMethod="pad">
<stop stop-opacity="1" stop-color="white" offset="0%"/>
<stop stop-opacity="1" stop-color="white" offset="100%"/>
</linearGradient>
<linearGradient x1="57" x2="57" y1="317" gradientUnits="userSpaceOnUse" y2="350" xlink:type="simple" xlink:actuate="onLoad" id="linearGradient5" xlink:show="other" spreadMethod="pad">
<stop stop-opacity="1" stop-color="white" offset="0%"/>
<stop stop-opacity="1" stop-color="white" offset="100%"/>
</linearGradient>
<linearGradient x1="460" x2="460" y1="317" gradientUnits="userSpaceOnUse" y2="350" xlink:type="simple" xlink:actuate="onLoad" id="linearGradient6" xlink:show="other" spreadMethod="pad">
<stop stop-opacity="1" stop-color="white" offset="0%"/>
<stop stop-opacity="1" stop-color="white" offset="100%"/>
</linearGradient>
<clipPath clipPathUnits="userSpaceOnUse" id="clipPath1">
<path d="M9 9 L637 9 L637 387 L9 387 L9 9 Z"/>
</clipPath>
<clipPath clipPathUnits="userSpaceOnUse" id="clipPath2">
<path d="M16 15 L81 15 L81 31 L16 31 L16 15 Z"/>
</clipPath>
<clipPath clipPathUnits="userSpaceOnUse" id="clipPath3">
<path d="M229 174 L422 174 L422 234 L229 234 L229 174 Z"/>
</clipPath>
<clipPath clipPathUnits="userSpaceOnUse" id="clipPath4">
<path d="M234 179 L417 179 L417 229 L234 229 L234 179 Z"/>
</clipPath>
<clipPath clipPathUnits="userSpaceOnUse" id="clipPath5">
<path d="M314 185 L338 185 L338 201 L314 201 L314 185 Z"/>
</clipPath>
<clipPath clipPathUnits="userSpaceOnUse" id="clipPath6">
<path d="M317 124 L334 124 L334 141 L317 141 L317 124 Z"/>
</clipPath>
<clipPath clipPathUnits="userSpaceOnUse" id="clipPath7">
<path d="M450 39 L581 39 L581 99 L450 99 L450 39 Z"/>
</clipPath>
<clipPath clipPathUnits="userSpaceOnUse" id="clipPath8">
<path d="M455 44 L576 44 L576 94 L455 94 L455 44 Z"/>
</clipPath>
<clipPath clipPathUnits="userSpaceOnUse" id="clipPath9">
<path d="M488 50 L543 50 L543 66 L488 66 L488 50 Z"/>
</clipPath>
<clipPath clipPathUnits="userSpaceOnUse" id="clipPath10">
<path d="M51 39 L182 39 L182 99 L51 99 L51 39 Z"/>
</clipPath>
<clipPath clipPathUnits="userSpaceOnUse" id="clipPath11">
<path d="M56 44 L177 44 L177 94 L56 94 L56 44 Z"/>
</clipPath>
<clipPath clipPathUnits="userSpaceOnUse" id="clipPath12">
<path d="M100 50 L133 50 L133 66 L100 66 L100 50 Z"/>
</clipPath>
<clipPath clipPathUnits="userSpaceOnUse" id="clipPath13">
<path d="M51 304 L182 304 L182 364 L51 364 L51 304 Z"/>
</clipPath>
<clipPath clipPathUnits="userSpaceOnUse" id="clipPath14">
<path d="M56 309 L177 309 L177 359 L56 359 L56 309 Z"/>
</clipPath>
<clipPath clipPathUnits="userSpaceOnUse" id="clipPath15">
<path d="M87 315 L147 315 L147 331 L87 331 L87 315 Z"/>
</clipPath>
<clipPath clipPathUnits="userSpaceOnUse" id="clipPath16">
<path d="M454 304 L597 304 L597 364 L454 364 L454 304 Z"/>
</clipPath>
<clipPath clipPathUnits="userSpaceOnUse" id="clipPath17">
<path d="M459 309 L592 309 L592 359 L459 359 L459 309 Z"/>
</clipPath>
<clipPath clipPathUnits="userSpaceOnUse" id="clipPath18">
<path d="M515 315 L536 315 L536 331 L515 331 L515 315 Z"/>
</clipPath>
<clipPath clipPathUnits="userSpaceOnUse" id="clipPath19">
<path d="M-1 -1 L647 -1 L647 397 L-1 397 L-1 -1 Z"/>
</clipPath>
<clipPath clipPathUnits="userSpaceOnUse" id="clipPath20">
<path d="M175 81 L185 81 L185 90 L175 90 L175 81 Z"/>
</clipPath>
<clipPath clipPathUnits="userSpaceOnUse" id="clipPath21">
<path d="M220 92 L257 92 L257 108 L220 108 L220 92 Z"/>
</clipPath>
<clipPath clipPathUnits="userSpaceOnUse" id="clipPath22">
<path d="M227 186 L237 186 L237 195 L227 195 L227 186 Z"/>
</clipPath>
<clipPath clipPathUnits="userSpaceOnUse" id="clipPath23">
<path d="M150 168 L187 168 L187 184 L150 184 L150 168 Z"/>
</clipPath>
<clipPath clipPathUnits="userSpaceOnUse" id="clipPath24">
<path d="M521 302 L530 302 L530 312 L521 312 L521 302 Z"/>
</clipPath>
<clipPath clipPathUnits="userSpaceOnUse" id="clipPath25">
<path d="M532 189 L623 189 L623 219 L532 219 L532 189 Z"/>
</clipPath>
<clipPath clipPathUnits="userSpaceOnUse" id="clipPath26">
<path d="M256 227 L265 227 L265 237 L256 237 L256 227 Z"/>
</clipPath>
<clipPath clipPathUnits="userSpaceOnUse" id="clipPath27">
<path d="M285 270 L366 270 L366 286 L285 286 L285 270 Z"/>
</clipPath>
<clipPath clipPathUnits="userSpaceOnUse" id="clipPath28">
<path d="M112 92 L121 92 L121 102 L112 102 L112 92 Z"/>
</clipPath>
<clipPath clipPathUnits="userSpaceOnUse" id="clipPath29">
<path d="M22 189 L113 189 L113 219 L22 219 L22 189 Z"/>
</clipPath>
<clipPath clipPathUnits="userSpaceOnUse" id="clipPath30">
<path d="M415 186 L425 186 L425 195 L415 195 L415 186 Z"/>
</clipPath>
<clipPath clipPathUnits="userSpaceOnUse" id="clipPath31">
<path d="M460 170 L497 170 L497 186 L460 186 L460 170 Z"/>
</clipPath>
<clipPath clipPathUnits="userSpaceOnUse" id="clipPath32">
<path d="M448 63 L458 63 L458 72 L448 72 L448 63 Z"/>
</clipPath>
<clipPath clipPathUnits="userSpaceOnUse" id="clipPath33">
<path d="M275 45 L356 45 L356 61 L275 61 L275 45 Z"/>
</clipPath>
<clipPath clipPathUnits="userSpaceOnUse" id="clipPath34">
<path d="M175 328 L185 328 L185 337 L175 337 L175 328 Z"/>
</clipPath>
<clipPath clipPathUnits="userSpaceOnUse" id="clipPath35">
<path d="M280 342 L361 342 L361 358 L280 358 L280 342 Z"/>
</clipPath>
<clipPath clipPathUnits="userSpaceOnUse" id="clipPath36">
<path d="M415 215 L425 215 L425 224 L415 224 L415 215 Z"/>
</clipPath>
<clipPath clipPathUnits="userSpaceOnUse" id="clipPath37">
<path d="M459 223 L496 223 L496 239 L459 239 L459 223 Z"/>
</clipPath>
<clipPath clipPathUnits="userSpaceOnUse" id="clipPath38">
<path d="M321 172 L330 172 L330 182 L321 182 L321 172 Z"/>
</clipPath>
<clipPath clipPathUnits="userSpaceOnUse" id="clipPath39">
<path d="M227 211 L237 211 L237 220 L227 220 L227 211 Z"/>
</clipPath>
<clipPath clipPathUnits="userSpaceOnUse" id="clipPath40">
<path d="M151 220 L188 220 L188 236 L151 236 L151 220 Z"/>
</clipPath>
</defs>
<g fill="url(#linearGradient1)" font-family="'Verdana'" stroke-linejoin="round" stroke="url(#linearGradient1)" stroke-width="0" stroke-miterlimit="0">
<rect x="10" y="10" clip-path="url(#clipPath1)" width="626" height="376" stroke="none"/>
</g>
<g stroke-width="1.1" font-family="'Verdana'" stroke-linecap="butt">
<rect x="10" y="10" clip-path="url(#clipPath1)" fill="none" width="625" height="375"/>
<text xml:space="preserve" x="17" y="29" clip-path="url(#clipPath2)" stroke="none">Operation</text>
<rect x="240" y="185" clip-path="url(#clipPath3)" fill="none" width="180" rx="7.5" opacity="0.0784" ry="7.5" height="47" stroke="gray" stroke-width="2.1"/>
<rect x="239" y="184" clip-path="url(#clipPath3)" fill="none" width="180" rx="7.5" opacity="0.1176" ry="7.5" height="47" stroke="gray" stroke-width="2.1"/>
<rect x="238" y="183" clip-path="url(#clipPath3)" fill="none" width="180" rx="7.5" opacity="0.2353" ry="7.5" height="47" stroke="gray" stroke-width="2.1"/>
<rect x="237" y="182" clip-path="url(#clipPath3)" fill="none" width="180" rx="7.5" opacity="0.3922" ry="7.5" height="47" stroke="gray" stroke-width="2.1"/>
<rect x="236" y="181" clip-path="url(#clipPath3)" fill="none" width="180" rx="7.5" opacity="0.5882" ry="7.5" height="47" stroke="gray" stroke-width="2.1"/>
<rect x="235" y="187" clip-path="url(#clipPath4)" fill="url(#linearGradient2)" width="181" height="33" stroke="none" stroke-width="2.1"/>
<path clip-path="url(#clipPath4)" fill="white" fill-rule="evenodd" d="M235 219.5 C235 223.6421 238.3579 227 242.5 227 L407.5 227 C411.6421 227 415 223.6421 415 219.5" stroke="none" stroke-width="2.1"/>
<path clip-path="url(#clipPath4)" fill="white" fill-rule="evenodd" d="M415 187.5 C415 183.3578 411.6421 180 407.5 180 C407.5 180 407.5 180 407.5 180 L242.5 180 C238.3578 180 235 183.3579 235 187.5" stroke="none" stroke-width="2.1"/>
<rect x="235" y="180" clip-path="url(#clipPath4)" fill="none" width="180" rx="7.5" ry="7.5" height="47"/>
<text x="315" y="199" clip-path="url(#clipPath5)" stroke="none" font-weight="bold" xml:space="preserve">Off</text>
<circle r="6.5" clip-path="url(#clipPath6)" cx="324.5" cy="131.5" stroke="none"/>
<rect x="461" y="50" clip-path="url(#clipPath7)" fill="none" width="118" rx="7.5" opacity="0.0784" ry="7.5" height="47" stroke="gray" stroke-width="2.1"/>
<rect x="460" y="49" clip-path="url(#clipPath7)" fill="none" width="118" rx="7.5" opacity="0.1176" ry="7.5" height="47" stroke="gray" stroke-width="2.1"/>
<rect x="459" y="48" clip-path="url(#clipPath7)" fill="none" width="118" rx="7.5" opacity="0.2353" ry="7.5" height="47" stroke="gray" stroke-width="2.1"/>
<rect x="458" y="47" clip-path="url(#clipPath7)" fill="none" width="118" rx="7.5" opacity="0.3922" ry="7.5" height="47" stroke="gray" stroke-width="2.1"/>
<rect x="457" y="46" clip-path="url(#clipPath7)" fill="none" width="118" rx="7.5" opacity="0.5882" ry="7.5" height="47" stroke="gray" stroke-width="2.1"/>
<rect x="456" y="52" clip-path="url(#clipPath8)" fill="url(#linearGradient3)" width="119" height="33" stroke="none" stroke-width="2.1"/>
<path clip-path="url(#clipPath8)" fill="rgb(255,128,128)" fill-rule="evenodd" d="M456 84.5 C456 88.6421 459.3578 92 463.5 92 L566.5 92 C570.6421 92 573.9999 88.6421 573.9999 84.5" stroke="none" stroke-width="2.1"/>
<path clip-path="url(#clipPath8)" fill="rgb(255,239,239)" fill-rule="evenodd" d="M573.9999 52.5 C573.9999 48.3579 570.6421 45 566.4999 45 C566.4999 45 566.4999 45 566.4999 45 L463.5 45 C459.3578 45 456 48.3579 456 52.5" stroke="none" stroke-width="2.1"/>
<rect x="456" y="45" clip-path="url(#clipPath8)" fill="none" width="118" rx="7.5" ry="7.5" height="47" stroke="red"/>
<text x="489" y="64" clip-path="url(#clipPath9)" stroke="none" font-weight="bold" xml:space="preserve">Prepare</text>
<rect x="62" y="50" clip-path="url(#clipPath10)" fill="none" width="118" rx="7.5" opacity="0.0784" ry="7.5" height="47" stroke="gray" stroke-width="2.1"/>
<rect x="61" y="49" clip-path="url(#clipPath10)" fill="none" width="118" rx="7.5" opacity="0.1176" ry="7.5" height="47" stroke="gray" stroke-width="2.1"/>
<rect x="60" y="48" clip-path="url(#clipPath10)" fill="none" width="118" rx="7.5" opacity="0.2353" ry="7.5" height="47" stroke="gray" stroke-width="2.1"/>
<rect x="59" y="47" clip-path="url(#clipPath10)" fill="none" width="118" rx="7.5" opacity="0.3922" ry="7.5" height="47" stroke="gray" stroke-width="2.1"/>
<rect x="58" y="46" clip-path="url(#clipPath10)" fill="none" width="118" rx="7.5" opacity="0.5882" ry="7.5" height="47" stroke="gray" stroke-width="2.1"/>
<rect x="57" y="52" clip-path="url(#clipPath11)" fill="url(#linearGradient4)" width="119" height="33" stroke="none" stroke-width="2.1"/>
<path clip-path="url(#clipPath11)" fill="white" fill-rule="evenodd" d="M57 84.5 C57 88.6421 60.3579 92 64.5 92 L167.5 92 C171.6421 92 175 88.6421 175 84.5" stroke="none" stroke-width="2.1"/>
<path clip-path="url(#clipPath11)" fill="white" fill-rule="evenodd" d="M175 52.5 C175 48.3579 171.6421 45 167.5 45 C167.5 45 167.5 45 167.5 45 L64.5 45 C60.3579 45 57 48.3579 57 52.5" stroke="none" stroke-width="2.1"/>
<rect x="57" y="45" clip-path="url(#clipPath11)" fill="none" width="118" rx="7.5" ry="7.5" height="47"/>
<text x="101" y="64" clip-path="url(#clipPath12)" stroke="none" font-weight="bold" xml:space="preserve">Stop</text>
<rect x="62" y="315" clip-path="url(#clipPath13)" fill="none" width="118" rx="7.5" opacity="0.0784" ry="7.5" height="47" stroke="gray" stroke-width="2.1"/>
<rect x="61" y="314" clip-path="url(#clipPath13)" fill="none" width="118" rx="7.5" opacity="0.1176" ry="7.5" height="47" stroke="gray" stroke-width="2.1"/>
<rect x="60" y="313" clip-path="url(#clipPath13)" fill="none" width="118" rx="7.5" opacity="0.2353" ry="7.5" height="47" stroke="gray" stroke-width="2.1"/>
<rect x="59" y="312" clip-path="url(#clipPath13)" fill="none" width="118" rx="7.5" opacity="0.3922" ry="7.5" height="47" stroke="gray" stroke-width="2.1"/>
<rect x="58" y="311" clip-path="url(#clipPath13)" fill="none" width="118" rx="7.5" opacity="0.5882" ry="7.5" height="47" stroke="gray" stroke-width="2.1"/>
<rect x="57" y="317" clip-path="url(#clipPath14)" fill="url(#linearGradient5)" width="119" height="33" stroke="none" stroke-width="2.1"/>
<path clip-path="url(#clipPath14)" fill="white" fill-rule="evenodd" d="M57 349.5 C57 353.6421 60.3579 357 64.5 357 L167.5 357 C171.6421 357 175 353.6421 175 349.5" stroke="none" stroke-width="2.1"/>
<path clip-path="url(#clipPath14)" fill="white" fill-rule="evenodd" d="M175 317.5 C175 313.3578 171.6421 310 167.5 310 C167.5 310 167.5 310 167.5 310 L64.5 310 C60.3579 310 57 313.3578 57 317.5" stroke="none" stroke-width="2.1"/>
<rect x="57" y="310" clip-path="url(#clipPath14)" fill="none" width="118" rx="7.5" ry="7.5" height="47"/>
<text x="88" y="329" clip-path="url(#clipPath15)" stroke="none" font-weight="bold" xml:space="preserve">Continue</text>
<rect x="465" y="315" clip-path="url(#clipPath16)" fill="none" width="130" rx="7.5" opacity="0.0784" ry="7.5" height="47" stroke="gray" stroke-width="2.1"/>
<rect x="464" y="314" clip-path="url(#clipPath16)" fill="none" width="130" rx="7.5" opacity="0.1176" ry="7.5" height="47" stroke="gray" stroke-width="2.1"/>
<rect x="463" y="313" clip-path="url(#clipPath16)" fill="none" width="130" rx="7.5" opacity="0.2353" ry="7.5" height="47" stroke="gray" stroke-width="2.1"/>
<rect x="462" y="312" clip-path="url(#clipPath16)" fill="none" width="130" rx="7.5" opacity="0.3922" ry="7.5" height="47" stroke="gray" stroke-width="2.1"/>
<rect x="461" y="311" clip-path="url(#clipPath16)" fill="none" width="130" rx="7.5" opacity="0.5882" ry="7.5" height="47" stroke="gray" stroke-width="2.1"/>
<rect x="460" y="317" clip-path="url(#clipPath17)" fill="url(#linearGradient6)" width="131" height="33" stroke="none" stroke-width="2.1"/>
<path clip-path="url(#clipPath17)" fill="white" fill-rule="evenodd" d="M460 349.5 C460 353.6421 463.3578 357 467.5 357 L582.5 357 C586.6421 357 589.9999 353.6421 589.9999 349.5" stroke="none" stroke-width="2.1"/>
<path clip-path="url(#clipPath17)" fill="white" fill-rule="evenodd" d="M589.9999 317.5 C589.9999 313.3578 586.6421 310 582.4999 310 C582.4999 310 582.4999 310 582.4999 310 L467.5 310 C463.3578 310 460 313.3578 460 317.5" stroke="none" stroke-width="2.1"/>
<rect x="460" y="310" clip-path="url(#clipPath17)" fill="none" width="130" rx="7.5" ry="7.5" height="47"/>
<text x="516" y="329" clip-path="url(#clipPath18)" stroke="none" font-weight="bold" xml:space="preserve">Go</text>
<line clip-path="url(#clipPath19)" fill="none" x1="260" x2="260" y1="180" y2="85"/>
<line clip-path="url(#clipPath19)" fill="none" x1="260" x2="176" y1="85" y2="85"/>
<polygon clip-path="url(#clipPath20)" points=" 176 85 183 82 183 88" stroke="none"/>
<polygon fill="none" clip-path="url(#clipPath20)" points=" 176 85 183 82 183 88"/>
<text xml:space="preserve" x="221" y="106" clip-path="url(#clipPath21)" stroke="none">onOff</text>
<line clip-path="url(#clipPath19)" fill="none" x1="145" x2="145" y1="93" y2="190"/>
<line clip-path="url(#clipPath19)" fill="none" x1="145" x2="235" y1="190" y2="190"/>
<polygon clip-path="url(#clipPath22)" points=" 235 190 228 193 228 187" stroke="none"/>
<polygon fill="none" clip-path="url(#clipPath22)" points=" 235 190 228 193 228 187"/>
<text xml:space="preserve" x="151" y="182" clip-path="url(#clipPath23)" stroke="none">onOff</text>
<line clip-path="url(#clipPath19)" fill="none" x1="525" x2="525" y1="93" y2="310"/>
<polygon clip-path="url(#clipPath24)" points=" 525 310 522 303 528 303" stroke="none"/>
<polygon fill="none" clip-path="url(#clipPath24)" points=" 525 310 522 303 528 303"/>
<text xml:space="preserve" x="533" y="203" clip-path="url(#clipPath25)" stroke="none">switchPhase /</text>
<text xml:space="preserve" x="533" y="217" clip-path="url(#clipPath25)" stroke="none">raise go</text>
<line clip-path="url(#clipPath19)" fill="none" x1="389" x2="389" y1="228" y2="265"/>
<line clip-path="url(#clipPath19)" fill="none" x1="389" x2="260" y1="265" y2="265"/>
<line clip-path="url(#clipPath19)" fill="none" x1="260" x2="260" y1="265" y2="228"/>
<polygon clip-path="url(#clipPath26)" points=" 260 228 263 235 257 235" stroke="none"/>
<polygon fill="none" clip-path="url(#clipPath26)" points=" 260 228 263 235 257 235"/>
<text xml:space="preserve" x="286" y="284" clip-path="url(#clipPath27)" stroke="none">switchPhase</text>
<line clip-path="url(#clipPath19)" fill="none" x1="116" x2="116" y1="310" y2="93"/>
<polygon clip-path="url(#clipPath28)" points=" 116 93 119 100 113 100" stroke="none"/>
<polygon fill="none" clip-path="url(#clipPath28)" points=" 116 93 119 100 113 100"/>
<text xml:space="preserve" x="23" y="203" clip-path="url(#clipPath29)" stroke="none">switchPhase /</text>
<text xml:space="preserve" x="23" y="217" clip-path="url(#clipPath29)" stroke="none">raise stop</text>
<line clip-path="url(#clipPath19)" fill="none" x1="500" x2="500" y1="93" y2="190"/>
<line clip-path="url(#clipPath19)" fill="none" x1="500" x2="416" y1="190" y2="190"/>
<polygon clip-path="url(#clipPath30)" points=" 416 190 423 187 423 193" stroke="none"/>
<polygon fill="none" clip-path="url(#clipPath30)" points=" 416 190 423 187 423 193"/>
<text xml:space="preserve" x="461" y="184" clip-path="url(#clipPath31)" stroke="none">onOff</text>
<line clip-path="url(#clipPath19)" fill="none" x1="176" x2="456" y1="67" y2="67"/>
<polygon clip-path="url(#clipPath32)" points=" 456 67 449 70 449 64" stroke="none"/>
<polygon fill="none" clip-path="url(#clipPath32)" points=" 456 67 449 70 449 64"/>
<text xml:space="preserve" x="276" y="59" clip-path="url(#clipPath33)" stroke="none">switchPhase</text>
<line clip-path="url(#clipPath19)" fill="none" x1="460" x2="176" y1="332" y2="332"/>
<polygon clip-path="url(#clipPath34)" points=" 176 332 183 329 183 335" stroke="none"/>
<polygon fill="none" clip-path="url(#clipPath34)" points=" 176 332 183 329 183 335"/>
<text xml:space="preserve" x="281" y="356" clip-path="url(#clipPath35)" stroke="none">switchPhase</text>
<line clip-path="url(#clipPath19)" fill="none" x1="500" x2="500" y1="310" y2="219"/>
<line clip-path="url(#clipPath19)" fill="none" x1="500" x2="416" y1="219" y2="219"/>
<polygon clip-path="url(#clipPath36)" points=" 416 219 423 216 423 222" stroke="none"/>
<polygon fill="none" clip-path="url(#clipPath36)" points=" 416 219 423 216 423 222"/>
<text xml:space="preserve" x="460" y="237" clip-path="url(#clipPath37)" stroke="none">onOff</text>
<line clip-path="url(#clipPath19)" fill="none" x1="325" x2="325" y1="140" y2="180"/>
<polygon clip-path="url(#clipPath38)" points=" 325 180 322 173 328 173" stroke="none"/>
<polygon fill="none" clip-path="url(#clipPath38)" points=" 325 180 322 173 328 173"/>
<line clip-path="url(#clipPath19)" fill="none" x1="146" x2="146" y1="310" y2="215"/>
<line clip-path="url(#clipPath19)" fill="none" x1="146" x2="235" y1="215" y2="215"/>
<polygon clip-path="url(#clipPath39)" points=" 235 215 228 218 228 212" stroke="none"/>
<polygon fill="none" clip-path="url(#clipPath39)" points=" 235 215 228 218 228 212"/>
<text xml:space="preserve" x="152" y="234" clip-path="url(#clipPath40)" stroke="none">onOff</text>
</g>
</g>
</svg>
